<?xml version="1.0" encoding="UTF-8" standalone="no"?>
<!DOCTYPE svg PUBLIC "-//W3C//DTD SVG 1.1//EN"
 "http://www.w3.org/Graphics/SVG/1.1/DTD/svg11.dtd">
<!-- Generated by graphviz version 2.40.1 (20161225.0304)
 -->
<!-- Title: G Pages: 1 -->
<svg width="720pt" height="572pt"
 viewBox="0.00 0.00 720.00 572.48" xmlns="http://www.w3.org/2000/svg" xmlns:xlink="http://www.w3.org/1999/xlink">
<g id="graph0" class="graph" transform="scale(.8182 .8182) rotate(0) translate(4 695.6955)">
<title>G</title>
<polygon fill="#ffffff" stroke="transparent" points="-4,4 -4,-695.6955 876,-695.6955 876,4 -4,4"/>
<g id="clust1" class="cluster">
<title>cluster_0</title>
<polygon fill="#ffffff" stroke="#ffffff" points="91,-428.6173 91,-626.926 597,-626.926 597,-428.6173 91,-428.6173"/>
</g>
<g id="clust2" class="cluster">
<title>cluster_1</title>
<polygon fill="#ffffff" stroke="#ffffff" points="418,-64.7696 418,-335.8478 864,-335.8478 864,-64.7696 418,-64.7696"/>
</g>
<g id="clust3" class="cluster">
<title>cluster_3</title>
<polygon fill="#ffffff" stroke="#ffffff" points="8,-64.7696 8,-408.6173 410,-408.6173 410,-64.7696 8,-64.7696"/>
</g>
<!-- HTTP Server (Spring Boot / Node) ilgili mesaji -->
<g id="node1" class="node">
<title>HTTP Server (Spring Boot / Node) ilgili mesaji</title>
<ellipse fill="#d3d3d3" stroke="#d3d3d3" cx="344" cy="-600.5412" rx="213.8755" ry="18.2703"/>
<text text-anchor="middle" x="344" y="-596.0412" font-family="Times,serif" font-size="15.00" fill="#000000">HTTP Server (Spring Boot / Node) ilgili mesaji</text>
</g>
<!-- RabbitMQ Server&#39;a yollar -->
<g id="node2" class="node">
<title>RabbitMQ Server&#39;a yollar</title>
<ellipse fill="#d3d3d3" stroke="#d3d3d3" cx="344" cy="-527.7716" rx="122.7877" ry="18.2703"/>
<text text-anchor="middle" x="344" y="-523.2716" font-family="Times,serif" font-size="15.00" fill="#000000">RabbitMQ Server&#39;a yollar</text>
</g>
<!-- HTTP Server (Spring Boot / Node) ilgili mesaji&#45;&gt;RabbitMQ Server&#39;a yollar -->
<g id="edge1" class="edge">
<title>HTTP Server (Spring Boot / Node) ilgili mesaji&#45;&gt;RabbitMQ Server&#39;a yollar</title>
<path fill="none" stroke="#000000" d="M344,-581.8012C344,-574.0172 344,-564.8115 344,-556.2252"/>
<polygon fill="#000000" stroke="#000000" points="347.5001,-556.1962 344,-546.1962 340.5001,-556.1962 347.5001,-556.1962"/>
</g>
<!-- RabbitMQ Server bu mesaji ilgili queue&#39;ya yonlendirir -->
<g id="node3" class="node">
<title>RabbitMQ Server bu mesaji ilgili queue&#39;ya yonlendirir</title>
<ellipse fill="#d3d3d3" stroke="#d3d3d3" cx="344" cy="-455.0021" rx="244.7076" ry="18.2703"/>
<text text-anchor="middle" x="344" y="-450.5021" font-family="Times,serif" font-size="15.00" fill="#000000">RabbitMQ Server bu mesaji ilgili queue&#39;ya yonlendirir</text>
</g>
<!-- RabbitMQ Server&#39;a yollar&#45;&gt;RabbitMQ Server bu mesaji ilgili queue&#39;ya yonlendirir -->
<g id="edge2" class="edge">
<title>RabbitMQ Server&#39;a yollar&#45;&gt;RabbitMQ Server bu mesaji ilgili queue&#39;ya yonlendirir</title>
<path fill="none" stroke="#000000" d="M344,-509.0317C344,-501.2476 344,-492.0419 344,-483.4556"/>
<polygon fill="#000000" stroke="#000000" points="347.5001,-483.4266 344,-473.4266 340.5001,-483.4267 347.5001,-483.4266"/>
</g>
<!-- Baska bir uygulama(listener) bu queue&#39;yi dinler -->
<g id="node4" class="node">
<title>Baska bir uygulama(listener) bu queue&#39;yi dinler</title>
<ellipse fill="#add8e6" stroke="#add8e6" cx="641" cy="-309.463" rx="214.6729" ry="18.2703"/>
<text text-anchor="middle" x="641" y="-304.963" font-family="Times,serif" font-size="15.00" fill="#000000">Baska bir uygulama(listener) bu queue&#39;yi dinler</text>
</g>
<!-- RabbitMQ Server bu mesaji ilgili queue&#39;ya yonlendirir&#45;&gt;Baska bir uygulama(listener) bu queue&#39;yi dinler -->
<g id="edge11" class="edge">
<title>RabbitMQ Server bu mesaji ilgili queue&#39;ya yonlendirir&#45;&gt;Baska bir uygulama(listener) bu queue&#39;yi dinler</title>
<path fill="none" stroke="#000000" d="M381.3145,-436.7168C435.4406,-410.1934 535.6775,-361.0742 594.5281,-332.2356"/>
<polygon fill="#000000" stroke="#000000" points="596.1649,-335.3313 603.6045,-327.7879 593.0846,-329.0454 596.1649,-335.3313"/>
</g>
<!-- Varsayalim ki Consumer down oldu -->
<g id="node8" class="node">
<title>Varsayalim ki Consumer down oldu</title>
<ellipse fill="#f5f5dc" stroke="#f5f5dc" cx="232" cy="-382.2325" rx="165.1616" ry="18.2703"/>
<text text-anchor="middle" x="232" y="-377.7325" font-family="Times,serif" font-size="15.00" fill="#000000">Varsayalim ki Consumer down oldu</text>
</g>
<!-- RabbitMQ Server bu mesaji ilgili queue&#39;ya yonlendirir&#45;&gt;Varsayalim ki Consumer down oldu -->
<g id="edge12" class="edge">
<title>RabbitMQ Server bu mesaji ilgili queue&#39;ya yonlendirir&#45;&gt;Varsayalim ki Consumer down oldu</title>
<path fill="none" stroke="#000000" d="M315.7377,-436.6393C301.5448,-427.4178 284.1718,-416.13 268.9364,-406.2312"/>
<polygon fill="#000000" stroke="#000000" points="270.5457,-403.1029 260.2533,-400.5895 266.7319,-408.9727 270.5457,-403.1029"/>
</g>
<!-- Kuyruk FIFO prensibi ile calisir -->
<g id="node5" class="node">
<title>Kuyruk FIFO prensibi ile calisir</title>
<ellipse fill="#add8e6" stroke="#add8e6" cx="637" cy="-236.6934" rx="147.9786" ry="18.2703"/>
<text text-anchor="middle" x="637" y="-232.1934" font-family="Times,serif" font-size="15.00" fill="#000000">Kuyruk FIFO prensibi ile calisir</text>
</g>
<!-- Baska bir uygulama(listener) bu queue&#39;yi dinler&#45;&gt;Kuyruk FIFO prensibi ile calisir -->
<g id="edge3" class="edge">
<title>Baska bir uygulama(listener) bu queue&#39;yi dinler&#45;&gt;Kuyruk FIFO prensibi ile calisir</title>
<path fill="none" stroke="#000000" d="M639.9699,-290.723C639.542,-282.939 639.036,-273.7333 638.564,-265.147"/>
<polygon fill="#000000" stroke="#000000" points="642.0564,-264.9108 638.0128,-255.118 635.067,-265.295 642.0564,-264.9108"/>
</g>
<!-- Listener queue&#39;daki mesajlari consume eder -->
<g id="node6" class="node">
<title>Listener queue&#39;daki mesajlari consume eder</title>
<ellipse fill="#add8e6" stroke="#add8e6" cx="633" cy="-163.9239" rx="198.7357" ry="18.2703"/>
<text text-anchor="middle" x="633" y="-159.4239" font-family="Times,serif" font-size="15.00" fill="#000000">Listener queue&#39;daki mesajlari consume eder</text>
</g>
<!-- Kuyruk FIFO prensibi ile calisir&#45;&gt;Listener queue&#39;daki mesajlari consume eder -->
<g id="edge4" class="edge">
<title>Kuyruk FIFO prensibi ile calisir&#45;&gt;Listener queue&#39;daki mesajlari consume eder</title>
<path fill="none" stroke="#000000" d="M635.9699,-217.9535C635.542,-210.1694 635.036,-200.9637 634.564,-192.3774"/>
<polygon fill="#000000" stroke="#000000" points="638.0564,-192.1412 634.0128,-182.3484 631.067,-192.5255 638.0564,-192.1412"/>
</g>
<!-- Boylece surec sonlanir -->
<g id="node7" class="node">
<title>Boylece surec sonlanir</title>
<ellipse fill="#add8e6" stroke="#add8e6" cx="583" cy="-91.1543" rx="107.8289" ry="18.2703"/>
<text text-anchor="middle" x="583" y="-86.6543" font-family="Times,serif" font-size="15.00" fill="#000000">Boylece surec sonlanir</text>
</g>
<!-- Listener queue&#39;daki mesajlari consume eder&#45;&gt;Boylece surec sonlanir -->
<g id="edge5" class="edge">
<title>Listener queue&#39;daki mesajlari consume eder&#45;&gt;Boylece surec sonlanir</title>
<path fill="none" stroke="#000000" d="M620.3829,-145.5611C614.639,-137.2014 607.7283,-127.1436 601.4195,-117.9619"/>
<polygon fill="#000000" stroke="#000000" points="604.1609,-115.7712 595.6131,-109.5113 598.3915,-119.7353 604.1609,-115.7712"/>
</g>
<!-- Son -->
<g id="node14" class="node">
<title>Son</title>
<ellipse fill="none" stroke="#000000" cx="430" cy="-18.3848" rx="27.6342" ry="18.2703"/>
<text text-anchor="middle" x="430" y="-13.8848" font-family="Times,serif" font-size="15.00" fill="#000000">Son</text>
</g>
<!-- Boylece surec sonlanir&#45;&gt;Son -->
<g id="edge14" class="edge">
<title>Boylece surec sonlanir&#45;&gt;Son</title>
<path fill="none" stroke="#000000" d="M546.3527,-73.7242C520.5976,-61.4746 486.4813,-45.2483 461.8574,-33.5367"/>
<polygon fill="#000000" stroke="#000000" points="463.1289,-30.2658 452.595,-29.1313 460.1223,-36.5872 463.1289,-30.2658"/>
</g>
<!-- Mesaj / lar queue&#39;da bekletilir -->
<g id="node9" class="node">
<title>Mesaj / lar queue&#39;da bekletilir</title>
<ellipse fill="#f5f5dc" stroke="#f5f5dc" cx="219" cy="-309.463" rx="139.2657" ry="18.2703"/>
<text text-anchor="middle" x="219" y="-304.963" font-family="Times,serif" font-size="15.00" fill="#000000">Mesaj / lar queue&#39;da bekletilir</text>
</g>
<!-- Varsayalim ki Consumer down oldu&#45;&gt;Mesaj / lar queue&#39;da bekletilir -->
<g id="edge6" class="edge">
<title>Varsayalim ki Consumer down oldu&#45;&gt;Mesaj / lar queue&#39;da bekletilir</title>
<path fill="none" stroke="#000000" d="M228.6522,-363.4926C227.2616,-355.7085 225.617,-346.5028 224.0831,-337.9165"/>
<polygon fill="#000000" stroke="#000000" points="227.4956,-337.1161 222.2915,-327.8875 220.6047,-338.3472 227.4956,-337.1161"/>
</g>
<!-- Consumer tekrar start olursa -->
<g id="node10" class="node">
<title>Consumer tekrar start olursa</title>
<ellipse fill="#f5f5dc" stroke="#f5f5dc" cx="213" cy="-236.6934" rx="131.5483" ry="18.2703"/>
<text text-anchor="middle" x="213" y="-232.1934" font-family="Times,serif" font-size="15.00" fill="#000000">Consumer tekrar start olursa</text>
</g>
<!-- Mesaj / lar queue&#39;da bekletilir&#45;&gt;Consumer tekrar start olursa -->
<g id="edge7" class="edge">
<title>Mesaj / lar queue&#39;da bekletilir&#45;&gt;Consumer tekrar start olursa</title>
<path fill="none" stroke="#000000" d="M217.4549,-290.723C216.813,-282.939 216.054,-273.7333 215.3461,-265.147"/>
<polygon fill="#000000" stroke="#000000" points="218.8291,-264.7965 214.5191,-255.118 211.8528,-265.3718 218.8291,-264.7965"/>
</g>
<!-- message&#39;i tekrar tekrar push etmeye calisir -->
<g id="node11" class="node">
<title>message&#39;i tekrar tekrar push etmeye calisir</title>
<ellipse fill="#f5f5dc" stroke="#f5f5dc" cx="209" cy="-163.9239" rx="193.0287" ry="18.2703"/>
<text text-anchor="middle" x="209" y="-159.4239" font-family="Times,serif" font-size="15.00" fill="#000000">message&#39;i tekrar tekrar push etmeye calisir</text>
</g>
<!-- Consumer tekrar start olursa&#45;&gt;message&#39;i tekrar tekrar push etmeye calisir -->
<g id="edge8" class="edge">
<title>Consumer tekrar start olursa&#45;&gt;message&#39;i tekrar tekrar push etmeye calisir</title>
<path fill="none" stroke="#000000" d="M211.9699,-217.9535C211.542,-210.1694 211.036,-200.9637 210.564,-192.3774"/>
<polygon fill="#000000" stroke="#000000" points="214.0564,-192.1412 210.0128,-182.3484 207.067,-192.5255 214.0564,-192.1412"/>
</g>
<!-- Boylece veri kaybi onlenir -->
<g id="node12" class="node">
<title>Boylece veri kaybi onlenir</title>
<ellipse fill="#f5f5dc" stroke="#f5f5dc" cx="243" cy="-91.1543" rx="124.2427" ry="18.2703"/>
<text text-anchor="middle" x="243" y="-86.6543" font-family="Times,serif" font-size="15.00" fill="#000000">Boylece veri kaybi onlenir</text>
</g>
<!-- message&#39;i tekrar tekrar push etmeye calisir&#45;&gt;Boylece veri kaybi onlenir -->
<g id="edge9" class="edge">
<title>message&#39;i tekrar tekrar push etmeye calisir&#45;&gt;Boylece veri kaybi onlenir</title>
<path fill="none" stroke="#000000" d="M217.7558,-145.1839C221.5127,-137.1432 225.9783,-127.5857 230.1015,-118.7608"/>
<polygon fill="#000000" stroke="#000000" points="233.3294,-120.1203 234.3915,-109.5789 226.9875,-117.1572 233.3294,-120.1203"/>
</g>
<!-- Boylece veri kaybi onlenir&#45;&gt;Son -->
<g id="edge13" class="edge">
<title>Boylece veri kaybi onlenir&#45;&gt;Son</title>
<path fill="none" stroke="#000000" d="M287.3164,-73.909C320.8417,-60.8628 366.1607,-43.2273 396.6509,-31.3623"/>
<polygon fill="#000000" stroke="#000000" points="397.9455,-34.6143 405.9955,-27.726 395.4069,-28.0908 397.9455,-34.6143"/>
</g>
<!-- HTTP Uzerinden istek gelir -->
<g id="node13" class="node">
<title>HTTP Uzerinden istek gelir</title>
<ellipse fill="none" stroke="#000000" cx="344" cy="-673.3107" rx="129.3407" ry="18.2703"/>
<text text-anchor="middle" x="344" y="-668.8107" font-family="Times,serif" font-size="15.00" fill="#000000">HTTP Uzerinden istek gelir</text>
</g>
<!-- HTTP Uzerinden istek gelir&#45;&gt;HTTP Server (Spring Boot / Node) ilgili mesaji -->
<g id="edge10" class="edge">
<title>HTTP Uzerinden istek gelir&#45;&gt;HTTP Server (Spring Boot / Node) ilgili mesaji</title>
<path fill="none" stroke="#000000" d="M344,-654.5708C344,-646.7867 344,-637.581 344,-628.9947"/>
<polygon fill="#000000" stroke="#000000" points="347.5001,-628.9657 344,-618.9657 340.5001,-628.9658 347.5001,-628.9657"/>
</g>
</g>
</svg>
