<svg class="sequence hand" width="1210.609375px" height="927px"><desc></desc><defs><marker viewBox="0 0 5 5" markerWidth="5" markerHeight="5" orient="auto" refX="5" refY="2.5" id="markerArrowBlock"><path d="M 0 0 L 5 2.5 L 0 5 z"></path></marker><marker viewBox="0 0 9.6 16" markerWidth="4" markerHeight="16" orient="auto" refX="9.6" refY="8" id="markerArrowOpen"><path d="M 9.6,8 1.92,16 0,13.7 5.76,8 0,2.286 1.92,0 9.6,8 z"></path></marker></defs><g class="title"></g><g class="actor"><path d="M10,20C38.6,22.4 39.7,17.6 69.7,20.0C68.2,32.6 71.2,48.6 69.7,57.0C29.2,59.4 35.0,54.6 10.0,57.0C8.5,45.6 11.5,36.1 10.0,20.0" stroke="#000000" fill="#ffffff" style="stroke-width: 2;"></path><text x="20" y="44" style="font-size: 16px; font-family: danielbd;"><tspan x="20">Client</tspan></text></g><g class="actor"><path d="M10,870C45.1,867.6 29.1,872.4 69.7,870.0C71.2,875.9 68.2,878.9 69.7,907.0C51.8,909.4 24.3,904.6 10.0,907.0C8.5,882.2 11.5,893.4 10.0,870.0" stroke="#000000" fill="#ffffff" style="stroke-width: 2;"></path><text x="20" y="894" style="font-size: 16px; font-family: danielbd;"><tspan x="20">Client</tspan></text></g><path d="M39.8,57.0C7.3,739.9 72.4,616.1 39.8,870.0" stroke="#000000" fill="none" style="stroke-width: 2;"></path><g class="actor"><path d="M193.8203125,20C218.1,16.4 245.8,23.6 284.3,20.0C285.7,26.6 282.8,31.7 284.3,57.0C208.3,53.4 245.4,60.6 193.8,57.0C195.3,25.9 192.3,28.9 193.8,20.0" stroke="#000000" fill="#ffffff" style="stroke-width: 2;"></path><text x="203.8203125" y="44" style="font-size: 16px; font-family: danielbd;"><tspan x="203.8203125">JWT Filter</tspan></text></g><g class="actor"><path d="M193.8203125,870C269.8,866.4 223.2,873.6 284.3,870.0C285.7,885.9 282.8,898.1 284.3,907.0C215.5,910.6 220.2,903.4 193.8,907.0C195.3,898.1 192.3,878.9 193.8,870.0" stroke="#000000" fill="#ffffff" style="stroke-width: 2;"></path><text x="203.8203125" y="894" style="font-size: 16px; font-family: danielbd;"><tspan x="203.8203125">JWT Filter</tspan></text></g><path d="M239.0,57.0C206.5,739.9 271.6,219.4 239.0,870.0" stroke="#000000" fill="none" style="stroke-width: 2;"></path><g class="actor"><path d="M360.4140625,20C433.2,15.1 382.6,24.9 483.9,20.0C482.4,51.1 485.3,25.9 483.9,57.0C427.4,61.9 404.3,52.1 360.4,57.0C358.9,29.6 361.9,51.1 360.4,20.0" stroke="#000000" fill="#ffffff" style="stroke-width: 2;"></path><text x="371.4140625" y="44" style="font-size: 16px; font-family: danielbd;"><tspan x="370.4140625">Auth Controller</tspan></text></g><g class="actor"><path d="M360.4140625,870C390.0,874.9 454.2,865.1 483.9,870.0C482.4,898.1 485.3,878.9 483.9,907.0C400.2,911.9 454.2,902.1 360.4,907.0C358.9,893.1 361.9,875.9 360.4,870.0" stroke="#000000" fill="#ffffff" style="stroke-width: 2;"></path><text x="371.4140625" y="894" style="font-size: 16px; font-family: danielbd;"><tspan x="370.4140625">Auth Controller</tspan></text></g><path d="M422.1,57.0C389.6,187.1 454.7,432.4 422.1,870.0" stroke="#000000" fill="none" style="stroke-width: 2;"></path><g class="actor"><path d="M554.078125,20C681.0,26.1 580.8,13.9 706.3,20.0C704.8,48.1 707.8,28.9 706.3,57.0C590.6,50.9 619.8,63.1 554.1,57.0C555.6,51.1 552.6,48.1 554.1,20.0" stroke="#000000" fill="#ffffff" style="stroke-width: 2;"></path><text x="564.078125" y="44" style="font-size: 16px; font-family: danielbd;"><tspan x="564.078125">SpringAuthManager</tspan></text></g><g class="actor"><path d="M554.078125,870C648.9,863.9 657.3,876.1 706.3,870.0C707.8,887.8 704.8,898.1 706.3,907.0C681.9,900.9 583.2,913.1 554.1,907.0C555.6,900.0 552.6,883.9 554.1,870.0" stroke="#000000" fill="#ffffff" style="stroke-width: 2;"></path><text x="564.078125" y="894" style="font-size: 16px; font-family: danielbd;"><tspan x="564.078125">SpringAuthManager</tspan></text></g><path d="M630.2,57.0C662.7,525.5 597.7,355.9 630.2,870.0" stroke="#000000" fill="none" style="stroke-width: 2;"></path><g class="actor"><path d="M726.28125,20C831.4,25.5 842.4,14.5 864.6,20.0C866.0,47.2 863.1,46.2 864.6,57.0C842.4,51.5 812.7,62.5 726.3,57.0C727.8,37.5 724.8,40.2 726.3,20.0" stroke="#000000" fill="#ffffff" style="stroke-width: 2;"></path><text x="737.28125" y="44" style="font-size: 16px; font-family: danielbd;"><tspan x="736.28125">UserDetailService</tspan></text></g><g class="actor"><path d="M726.28125,870C776.4,864.5 748.4,875.5 864.6,870.0C866.0,890.6 863.1,894.1 864.6,907.0C819.7,901.5 769.5,912.5 726.3,907.0C724.8,901.1 727.8,876.2 726.3,870.0" stroke="#000000" fill="#ffffff" style="stroke-width: 2;"></path><text x="737.28125" y="894" style="font-size: 16px; font-family: danielbd;"><tspan x="736.28125">UserDetailService</tspan></text></g><path d="M795.4,57.0C762.9,422.6 827.9,338.4 795.4,870.0" stroke="#000000" fill="none" style="stroke-width: 2;"></path><g class="actor"><path d="M884.5625,20C909.2,15.3 931.9,24.7 1001.9,20.0C1000.4,47.3 1003.3,31.8 1001.9,57.0C912.7,52.3 903.3,61.7 884.6,57.0C883.1,51.1 886.0,42.9 884.6,20.0" stroke="#000000" fill="#ffffff" style="stroke-width: 2;"></path><text x="894.5625" y="44" style="font-size: 16px; font-family: danielbd;"><tspan x="894.5625">TokenManager</tspan></text></g><g class="actor"><path d="M884.5625,870C903.3,865.3 983.1,874.7 1001.9,870.0C1003.3,898.1 1000.4,895.8 1001.9,907.0C903.3,902.3 983.1,911.7 884.6,907.0C883.1,878.9 886.0,875.9 884.6,870.0" stroke="#000000" fill="#ffffff" style="stroke-width: 2;"></path><text x="894.5625" y="894" style="font-size: 16px; font-family: danielbd;"><tspan x="894.5625">TokenManager</tspan></text></g><path d="M943.2,57.0C975.7,674.9 910.7,739.9 943.2,870.0" stroke="#000000" fill="none" style="stroke-width: 2;"></path><g class="signal"><text x="64.609375" y="87.5" style="font-size: 16px; font-family: danielbd;"><tspan x="63.609375">HTTP Post (New User)</tspan></text><path d="M39.8,94.0C207.2,86.0 191.2,102.0 239.0,94.0" stroke="#000000" fill="none" style="stroke-width: 2; marker-end: url(&quot;#markerArrowBlock&quot;);"></path></g><g class="note"><path d="M186.1640625,114C223.3,118.2 254.5,109.8 291.9,114.0C290.8,134.5 293.0,133.1 291.9,141.0C249.5,136.8 233.2,145.2 186.2,141.0C187.2,136.7 185.1,124.5 186.2,114.0" stroke="#000000" fill="#ffffff" style="stroke-width: 2;"></path><text x="191.1640625" y="133" style="font-size: 16px; font-family: danielbd;"><tspan x="191.1640625">Token is exist?</tspan></text></g><g class="signal"><text x="287.328125" y="171.5" style="font-size: 16px; font-family: danielbd;"><tspan x="287.328125">Create Token</tspan></text><path d="M239.0,178.0C392.8,185.3 268.3,170.7 422.1,178.0" stroke="#000000" fill="none" style="stroke-width: 2; marker-end: url(&quot;#markerArrowBlock&quot;);"></path></g><g class="signal"><text x="433.1328125" y="208.5" style="font-size: 16px; font-family: danielbd;"><tspan x="432.1328125">Validate the User Credentials</tspan></text><path d="M422.1,215.0C596.9,206.7 455.4,223.3 630.2,215.0" stroke="#000000" fill="none" style="stroke-width: 2; marker-end: url(&quot;#markerArrowBlock&quot;);"></path></g><g class="note"><path d="M365.8828125,235C383.9,239.5 419.0,230.5 478.4,235.0C477.3,253.0 479.5,247.5 478.4,262.0C399.4,266.5 424.1,257.5 365.9,262.0C367.0,257.7 364.8,241.6 365.9,235.0" stroke="#000000" fill="#ffffff" style="stroke-width: 2;"></path><text x="370.8828125" y="254" style="font-size: 16px; font-family: danielbd;"><tspan x="370.8828125">Generate Token</tspan></text></g><g class="signal"><text x="642.15234375" y="292.5" style="font-size: 16px; font-family: danielbd;"><tspan x="642.15234375">loadUserByUsername</tspan></text><path d="M630.2,299.0C656.6,305.6 669.8,292.4 795.4,299.0" stroke="#000000" fill="none" style="stroke-width: 2; marker-end: url(&quot;#markerArrowBlock&quot;);"></path></g><g class="note"><path d="M815.421875,319C862.1,316.2 843.2,321.8 885.1,319.0C884.0,336.0 886.1,327.3 885.1,346.0C873.9,343.2 831.5,348.8 815.4,346.0C814.3,327.5 816.5,335.9 815.4,319.0" stroke="#000000" fill="#ffffff" style="stroke-width: 2;"></path><text x="821.421875" y="338" style="font-size: 16px; font-family: danielbd;"><tspan x="820.421875">Database</tspan></text></g><g class="note"><path d="M963.2109375,366C1054.4,361.7 1033.4,370.3 1071.7,366.0C1072.8,388.7 1070.6,370.3 1071.7,393.0C995.8,397.3 1045.7,388.7 963.2,393.0C962.1,388.7 964.3,370.3 963.2,366.0" stroke="#000000" fill="#ffffff" style="stroke-width: 2;"></path><text x="968.2109375" y="385" style="font-size: 16px; font-family: danielbd;"><tspan x="968.2109375">GenerateToken</tspan></text></g><g class="note"><path d="M963.2109375,413C988.2,408.8 1011.3,417.2 1067.4,413.0C1066.3,427.1 1068.5,433.5 1067.4,440.0C1015.9,435.8 983.1,444.2 963.2,440.0C962.1,435.7 964.3,429.4 963.2,413.0" stroke="#000000" fill="#ffffff" style="stroke-width: 2;"></path><text x="969.2109375" y="432" style="font-size: 16px; font-family: danielbd;"><tspan x="968.2109375">ValidateToken</tspan></text></g><g class="note"><path d="M963.2109375,460C985.4,454.4 1056.6,465.6 1102.0,460.0C1100.9,480.5 1103.0,474.9 1102.0,487.0C1065.4,481.4 985.4,492.6 963.2,487.0C964.3,466.7 962.1,479.2 963.2,460.0" stroke="#000000" fill="#ffffff" style="stroke-width: 2;"></path><text x="968.2109375" y="479" style="font-size: 16px; font-family: danielbd;"><tspan x="968.2109375">GetUserFromToken</tspan></text></g><g class="signal"><text x="480.4453125" y="517.5" style="font-size: 16px; font-family: danielbd;"><tspan x="480.4453125">Token is valid</tspan></text><path d="M630.2,524.0C596.9,532.3 493.9,515.7 422.1,524.0" stroke="#000000" fill="none" style="stroke-width: 2; stroke-dasharray: 6, 2; marker-end: url(&quot;#markerArrowBlock&quot;);"></path></g><g class="signal"><text x="266.265625" y="554.5" style="font-size: 16px; font-family: danielbd;"><tspan x="265.265625">Returns JWT Token</tspan></text><path d="M422.1,561.0C283.0,553.7 378.2,568.3 239.0,561.0" stroke="#000000" fill="none" style="stroke-width: 2; stroke-dasharray: 6, 2; marker-end: url(&quot;#markerArrowBlock&quot;);"></path></g><g class="signal"><text x="71.671875" y="591.5" style="font-size: 16px; font-family: danielbd;"><tspan x="70.671875">Now client has token</tspan></text><path d="M239.0,598.0C206.1,606.0 173.9,590.0 39.8,598.0" stroke="#000000" fill="none" style="stroke-width: 2; stroke-dasharray: 6, 2; marker-end: url(&quot;#markerArrowBlock&quot;);"></path></g><g class="signal"><text x="50.8359375" y="628.5" style="font-size: 16px; font-family: danielbd;"><tspan x="49.8359375">HTTP Request (with token)</tspan></text><path d="M39.8,635.0C131.2,627.0 145.6,643.0 239.0,635.0" stroke="#000000" fill="none" style="stroke-width: 2; marker-end: url(&quot;#markerArrowBlock&quot;);"></path></g><g class="signal"><text x="304.875" y="665.5" style="font-size: 16px; font-family: danielbd;"><tspan x="303.875">Validate</tspan></text><path d="M239.0,672.0C354.2,664.7 327.9,679.3 422.1,672.0" stroke="#000000" fill="none" style="stroke-width: 2; marker-end: url(&quot;#markerArrowBlock&quot;);"></path></g><g class="signal"><text x="467.98828125" y="702.5" style="font-size: 16px; font-family: danielbd;"><tspan x="466.98828125">the User Credentials(loadUserByUsername)</tspan></text><path d="M422.1,709.0C653.5,694.1 564.4,723.9 795.4,709.0" stroke="#000000" fill="none" style="stroke-width: 2; marker-end: url(&quot;#markerArrowBlock&quot;);"></path></g><g class="note"><path d="M815.421875,729C827.6,731.8 864.6,726.2 885.1,729.0C886.1,747.3 884.0,733.3 885.1,756.0C835.5,753.2 832.1,758.8 815.4,756.0C816.5,735.5 814.3,741.1 815.4,729.0" stroke="#000000" fill="#ffffff" style="stroke-width: 2;"></path><text x="821.421875" y="748" style="font-size: 16px; font-family: danielbd;"><tspan x="820.421875">Database</tspan></text></g><g class="signal"><text x="608.77734375" y="781" style="font-size: 16px; font-family: danielbd;"><tspan x="608.77734375"></tspan></text><path d="M795.4,776.0C498.1,761.1 735.7,790.9 422.1,776.0" stroke="#000000" fill="none" style="stroke-width: 2; stroke-dasharray: 6, 2; marker-end: url(&quot;#markerArrowBlock&quot;);"></path></g><g class="signal"><text x="249.0390625" y="806.5" style="font-size: 16px; font-family: danielbd;"><tspan x="249.0390625">Work relevant controllers</tspan></text><path d="M422.1,813.0C268.3,820.3 392.8,805.7 239.0,813.0" stroke="#000000" fill="none" style="stroke-width: 2; stroke-dasharray: 6, 2; marker-end: url(&quot;#markerArrowBlock&quot;);"></path></g><g class="signal"><text x="109.2734375" y="843.5" style="font-size: 16px; font-family: danielbd;"><tspan x="108.2734375">Response</tspan></text><path d="M239.0,850.0C189.7,842.0 87.6,858.0 39.8,850.0" stroke="#000000" fill="none" style="stroke-width: 2; stroke-dasharray: 6, 2; marker-end: url(&quot;#markerArrowBlock&quot;);"></path></g></svg>