<svg version="1.1" xmlns="http://www.w3.org/2000/svg" viewBox="0 0 549 404">
  <!-- svg-source:excalidraw -->
  <defs>
    <style>
      @font-face {
        font-family: "Virgil";
        src: url("https://excalidraw.com/FG_Virgil.woff2");
      }
      @font-face {
        font-family: "Cascadia";
        src: url("https://excalidraw.com/Cascadia.woff2");
      }
    </style>
  </defs>
  <rect x="0" y="0" width="549" height="404" fill="#ffffff"></rect><g transform="translate(121 10) rotate(0 170.5 192)"><text x="0" y="35" font-family="Virgil" font-size="30.85972850678733px" fill="#000000" text-anchor="start" style="white-space: pre;" direction="ltr">const initialObject = {</text><text x="0" y="83" font-family="Virgil" font-size="30.85972850678733px" fill="#000000" text-anchor="start" style="white-space: pre;" direction="ltr">    author: "", </text><text x="0" y="131" font-family="Virgil" font-size="30.85972850678733px" fill="#000000" text-anchor="start" style="white-space: pre;" direction="ltr">    isbn: "",</text><text x="0" y="179" font-family="Virgil" font-size="30.85972850678733px" fill="#000000" text-anchor="start" style="white-space: pre;" direction="ltr">    title: "",</text><text x="0" y="227" font-family="Virgil" font-size="30.85972850678733px" fill="#000000" text-anchor="start" style="white-space: pre;" direction="ltr">    language: "",</text><text x="0" y="275" font-family="Virgil" font-size="30.85972850678733px" fill="#000000" text-anchor="start" style="white-space: pre;" direction="ltr">    pages: "",</text><text x="0" y="323" font-family="Virgil" font-size="30.85972850678733px" fill="#000000" text-anchor="start" style="white-space: pre;" direction="ltr">    price: ""</text><text x="0" y="371" font-family="Virgil" font-size="30.85972850678733px" fill="#000000" text-anchor="start" style="white-space: pre;" direction="ltr">}</text></g><g><g transform="translate(368 86.5) rotate(0 54.58188356308267 0.1369862121064216)"><path d="M0.5658942494541406 -0.5186845991760493 C18.439302149787544 -0.6125942720721166, 89.32286687232555 -1.526539307211836, 107.3757131729275 -1.5494296167045831 M-0.596149998921901 1.8234020409174265 C17.66277576027438 1.9720575379518173, 91.56375311134383 0.47310434472436713, 109.75991712508723 -0.3004549142532049" stroke="#000000" stroke-width="1" fill="none"></path></g><g transform="translate(368 86.5) rotate(0 54.58188356308267 0.1369862121064216)"><path d="M81.01553440787157 9.73655359804307 C89.73354906029303 8.669063035867287, 99.90079328524877 4.994223294585523, 110.00814951395616 -1.8748118222318588 M81.56704561453572 11.734010482986019 C90.85344297677746 7.090201121929546, 99.18505907791774 3.1732136042106314, 109.55853648761287 -1.1452064389921723" stroke="#000000" stroke-width="1" fill="none"></path></g><g transform="translate(368 86.5) rotate(0 54.58188356308267 0.1369862121064216)"><path d="M80.41772279435901 -10.775945607577615 C89.15328004125068 -5.461285641129287, 99.50660637099111 -2.7511557025007436, 110.00814951395616 -1.8748118222318588 M80.96923400102315 -8.778488722634666 C90.47774078266801 -7.048983307128963, 98.99520739669828 -4.588947675999645, 109.55853648761287 -1.1452064389921723" stroke="#000000" stroke-width="1" fill="none"></path></g></g><g><g transform="translate(159 132.5) rotate(0 -53.85678401705809 -0.48121760605388886)"><path d="M0.44485785104334363 0.9333277132362128 C-17.339521698777872 1.0147449598958096, -89.36320121350388 0.24755628767112864, -107.13795437477529 -0.19562477804720424 M-0.7807305064983667 0.37772081734612595 C-18.697430608787883 0.18374986670290439, -90.53000071954602 -1.7013998730791113, -108.15842588515952 -1.895902535300702" stroke="#000000" stroke-width="1" fill="none"></path></g><g transform="translate(159 132.5) rotate(0 -53.85678401705809 -0.48121760605388886)"><path d="M-78.2165784386612 -11.832417084350265 C-85.98158461564246 -7.607228288802407, -96.0265552045936 -6.867148825180327, -109.96528016859665 -0.559018329139799 M-78.92281932268958 -10.786130018047071 C-88.64132225336681 -7.599978775862674, -98.65039084310338 -5.046171258670483, -107.17871923735365 -2.476306298170239" stroke="#000000" stroke-width="1" fill="none"></path></g><g transform="translate(159 132.5) rotate(0 -53.85678401705809 -0.48121760605388886)"><path d="M-78.61843519296247 8.684856456129275 C-86.16036998431842 7.491443167292673, -96.09923957602973 2.8144102892981753, -109.96528016859665 -0.559018329139799 M-79.32467607699084 9.731143522432468 C-88.9709130178642 6.0061249047433325, -98.84460580018897 1.6481599017479143, -107.17871923735365 -2.476306298170239" stroke="#000000" stroke-width="1" fill="none"></path></g></g><g><g transform="translate(334 181.5) rotate(0 74.1230269203894 -0.9445075459591976)"><path d="M-0.17996272780001155 1.0191663656383751 C24.74289166790744 0.7570348932097355, 124.96127466621499 -0.7439204699049393, 149.97963573001326 -1.2036765303462744 M-1.7335818892344834 0.5086247622594238 C23.078249775407215 -0.12175798499335844, 124.31482499702524 -2.7759019283826154, 149.545899024643 -2.9081814575567844" stroke="#000000" stroke-width="1" fill="none"></path></g><g transform="translate(334 181.5) rotate(0 74.1230269203894 -0.9445075459591976)"><path d="M123.23558266559371 9.47163785802272 C132.2666495793891 5.810820390518109, 140.80935624453215 0.7581695120874494, 151.50531232025475 -4.068988983295858 M121.57101511215546 7.13126584043798 C127.22574996922617 4.84977803065744, 135.0945476293935 3.737455805757932, 149.3609429629892 -2.922233547791839" stroke="#000000" stroke-width="1" fill="none"></path></g><g transform="translate(334 181.5) rotate(0 74.1230269203894 -0.9445075459591976)"><path d="M122.8803284880218 -11.046495508713086 C132.0941843922381 -7.79471803046583, 140.75656758542365 -5.9353067340684404, 151.50531232025475 -4.068988983295858 M121.21576093458356 -13.386867526297827 C127.08069127023964 -10.88579661030586, 135.03226182245146 -7.217470653311345, 149.3609429629892 -2.922233547791839" stroke="#000000" stroke-width="1" fill="none"></path></g></g><g><g transform="translate(171 236.5) rotate(0 -55.64127589506097 -0.5343211781530783)"><path d="M-0.01686250828206548 -0.37013728357851505 C-18.650860715533298 -0.23093284107744694, -92.16779292089244 0.6012489344924689, -110.89681561850011 0.6132793810218573 M-1.4848540544696154 -1.610063302796334 C-20.259722609339903 -1.8034087797813116, -92.6195030733136 -1.5995185866765678, -111.26568928183988 -1.1873236927203834" stroke="#000000" stroke-width="1" fill="none"></path></g><g transform="translate(171 236.5) rotate(0 -55.64127589506097 -0.5343211781530783)"><path d="M-83.80539341659895 -9.916148532418141 C-92.73164216542003 -8.441282284186439, -104.79609682965496 -2.7650161511778215, -109.9571262636222 0.45812869304791093 M-82.3162008926054 -11.103822839682529 C-90.20724314370406 -8.194845188323903, -99.59915663590449 -6.13766756008211, -111.58546345969663 -1.0066630155779421" stroke="#000000" stroke-width="1" fill="none"></path></g><g transform="translate(171 236.5) rotate(0 -55.64127589506097 -0.5343211781530783)"><path d="M-83.58157247824423 10.603839444512875 C-92.55393491795775 4.371411858300204, -104.70245623469907 2.3404156083846717, -109.9571262636222 0.45812869304791093 M-82.09237995425067 9.416165137248488 C-90.2256895753767 6.54611543624018, -99.68063231312132 2.8247480799558353, -111.58546345969663 -1.0066630155779421" stroke="#000000" stroke-width="1" fill="none"></path></g></g><g><g transform="translate(336 273.5) rotate(0 72.16094378965903 -1.4373891258519507)"><path d="M0.8058556113392112 0.2562149550765753 C24.96182653047144 -0.004880946253736751, 120.77901628352701 -0.9716445340464512, 144.5520965013653 -1.349782595410943 M-0.23020892204716792 -0.6548761388473212 C23.849625440817324 -1.2836796401751538, 120.12438096342608 -3.1231811261984213, 143.89390170095487 -3.130993206780404" stroke="#000000" stroke-width="1" fill="none"></path></g><g transform="translate(336 273.5) rotate(0 72.16094378965903 -1.4373891258519507)"><path d="M116.2480680569368 8.368137888581668 C124.40978681065829 3.497946735697786, 130.82922882499923 2.818541860676703, 144.05480720555408 -4.061380698140711 M116.16121476975405 7.873112290137623 C125.80976364433073 2.6208855748848348, 136.97973158772956 -0.9849647559479004, 143.2240032235719 -3.8003949595429005" stroke="#000000" stroke-width="1" fill="none"></path></g><g transform="translate(336 273.5) rotate(0 72.16094378965903 -1.4373891258519507)"><path d="M116.01583831051168 -12.15175664649611 C124.27687126095299 -11.523712209691787, 130.75855609159777 -6.703321964655695, 144.05480720555408 -4.061380698140711 M115.92898502332893 -12.646782244940155 C125.49187544183475 -10.445559413279467, 136.74620553801063 -6.597142991532643, 143.2240032235719 -3.8003949595429005" stroke="#000000" stroke-width="1" fill="none"></path></g></g><g><g transform="translate(164 324.5) rotate(0 -49.744428390227256 -1.7972606749646616)"><path d="M-1.1226594898849724 0.10376376248896113 C-17.65876098610461 -0.25156025551259525, -82.57374794222414 -1.5869191017001867, -99.01942089535297 -2.0660395827144384 M0.4888055485859515 -0.8873642075434327 C-16.224270521961152 -1.5723655867949127, -83.67608448084444 -3.6239748418703672, -99.97766232904047 -3.698285112418234" stroke="#000000" stroke-width="1" fill="none"></path></g><g transform="translate(164 324.5) rotate(0 -49.744428390227256 -1.7972606749646616)"><path d="M-71.41597482400917 -13.430085864028342 C-79.01010469443756 -11.921923042945643, -89.16808852850255 -8.804638756648398, -99.2025504097715 -4.270830080173909 M-71.89080601117544 -14.006321567220994 C-78.14501361987891 -12.037092948389665, -84.38050896194726 -9.158412625150078, -99.39042925037444 -3.3703448244184253" stroke="#000000" stroke-width="1" fill="none"></path></g><g transform="translate(164 324.5) rotate(0 -49.744428390227256 -1.7972606749646616)"><path d="M-71.82300505674525 7.087085694826404 C-79.29960551854472 2.1067598756119086, -89.32879182354765 -1.2682524480001334, -99.2025504097715 -4.270830080173909 M-72.29783624391152 6.510849991633752 C-78.47059105603803 3.677806240283404, -84.61080344000332 1.7535588180957564, -99.39042925037444 -3.3703448244184253" stroke="#000000" stroke-width="1" fill="none"></path></g></g><g transform="translate(515 59) rotate(0 11 22)"><text x="0" y="32" font-family="Virgil" font-size="28px" fill="#e67700" text-anchor="start" style="white-space: pre;" direction="ltr">0</text></g><g transform="translate(17 113.5) rotate(0 2.5 22)"><text x="0" y="32" font-family="Virgil" font-size="28px" fill="#e67700" text-anchor="start" style="white-space: pre;" direction="ltr">1</text></g><g transform="translate(518 161.5) rotate(0 10.5 22)"><text x="0" y="32" font-family="Virgil" font-size="28px" fill="#e67700" text-anchor="start" style="white-space: pre;" direction="ltr">2</text></g><g transform="translate(10 219.5) rotate(0 10 22)"><text x="0" y="32" font-family="Virgil" font-size="28px" fill="#e67700" text-anchor="start" style="white-space: pre;" direction="ltr">3</text></g><g transform="translate(515 256.5) rotate(0 8 22)"><text x="0" y="32" font-family="Virgil" font-size="28px" fill="#e67700" text-anchor="start" style="white-space: pre;" direction="ltr">4</text></g><g transform="translate(21 311.5) rotate(0 10 22)"><text x="0" y="32" font-family="Virgil" font-size="28px" fill="#e67700" text-anchor="start" style="white-space: pre;" direction="ltr">5</text></g></svg>