<svg version="1.1" xmlns="http://www.w3.org/2000/svg" viewBox="0 0 991.0000000000002 414.7499999999998">
  <!-- svg-source:excalidraw -->
  <defs>
    <style>
      @font-face {
        font-family: "Virgil";
        src: url("https://excalidraw.com/FG_Virgil.woff2");
      }
      @font-face {
        font-family: "Cascadia";
        src: url("https://excalidraw.com/Cascadia.woff2");
      }
    </style>
  </defs>
  <rect x="0" y="0" width="991.0000000000002" height="414.7499999999998" fill="#ffffff"></rect><g transform="translate(199 10) rotate(0 277.3918918918919 197.3749999999999)"><text x="0" y="39.34374999999998" font-family="Cascadia" font-size="41.154992662345606px" fill="#000000" text-anchor="start" style="white-space: pre;" direction="ltr">const initialObject = {</text><text x="0" y="88.68749999999996" font-family="Cascadia" font-size="41.154992662345606px" fill="#000000" text-anchor="start" style="white-space: pre;" direction="ltr">    author: "", </text><text x="0" y="138.03124999999994" font-family="Cascadia" font-size="41.154992662345606px" fill="#000000" text-anchor="start" style="white-space: pre;" direction="ltr">    isbn: "",</text><text x="0" y="187.37499999999991" font-family="Cascadia" font-size="41.154992662345606px" fill="#000000" text-anchor="start" style="white-space: pre;" direction="ltr">    title: "",</text><text x="0" y="236.7187499999999" font-family="Cascadia" font-size="41.154992662345606px" fill="#000000" text-anchor="start" style="white-space: pre;" direction="ltr">    language: "",</text><text x="0" y="286.0624999999999" font-family="Cascadia" font-size="41.154992662345606px" fill="#000000" text-anchor="start" style="white-space: pre;" direction="ltr">    pages: "",</text><text x="0" y="335.40624999999983" font-family="Cascadia" font-size="41.154992662345606px" fill="#000000" text-anchor="start" style="white-space: pre;" direction="ltr">    price: ""</text><text x="0" y="384.74999999999983" font-family="Cascadia" font-size="41.154992662345606px" fill="#000000" text-anchor="start" style="white-space: pre;" direction="ltr">}</text></g><g><g transform="translate(764.0000000000002 94.5) rotate(0 79.5 -0.5)"><path d="M0 0 C26.5 -0.16666666666666666, 132.5 -0.8333333333333334, 159 -1" stroke="#000000" stroke-width="1.5" fill="none" stroke-dasharray="12 8"></path></g><g transform="translate(764.0000000000002 94.5) rotate(0 79.5 -0.5)"><path d="M130.8743097348632 9.437698362646326 C139.62905374578506 6.188733577541797, 148.3837977567069 2.939768792437266, 159 -1" stroke="#000000" stroke-width="1.5" fill="none"></path></g><g transform="translate(764.0000000000002 94.5) rotate(0 79.5 -0.5)"><path d="M130.74524808235188 -11.083104386653968 C139.5401653910208 -7.944514829974537, 148.33508269968974 -4.805925273295106, 159 -1" stroke="#000000" stroke-width="1.5" fill="none"></path></g></g><g><g transform="translate(159 131.5) rotate(0 -53.5 -0.5)"><path d="M0 0 C-17.833333333333332 -0.16666666666666666, -89.16666666666667 -0.8333333333333334, -107 -1" stroke="#000000" stroke-width="1.5" fill="none" stroke-dasharray="12 8"></path></g><g transform="translate(159 131.5) rotate(0 -53.5 -0.5)"><path d="M-78.71456313112208 -10.996702513165095 C-86.18267963539878 -8.357304034966008, -93.6507961396755 -5.717905556766921, -107 -1" stroke="#000000" stroke-width="1.5" fill="none"></path></g><g transform="translate(159 131.5) rotate(0 -53.5 -0.5)"><path d="M-78.90634175221858 9.52360994416191 C-86.32382353969678 6.745093724918385, -93.74130532717496 3.9665775056748593, -107 -1" stroke="#000000" stroke-width="1.5" fill="none"></path></g></g><g><g transform="translate(781.0000000000002 189.5) rotate(0 74.5 -1)"><path d="M0 0 C24.833333333333332 -0.3333333333333333, 124.16666666666667 -1.6666666666666667, 149 -2" stroke="#000000" stroke-width="1.5" fill="none" stroke-dasharray="12 8"></path></g><g transform="translate(781.0000000000002 189.5) rotate(0 74.5 -1)"><path d="M120.94947445536909 8.638045716672258 C130.39901711773538 5.054345771943818, 139.84855978010168 1.4706458272153782, 149 -2" stroke="#000000" stroke-width="1.5" fill="none"></path></g><g transform="translate(781.0000000000002 189.5) rotate(0 74.5 -1)"><path d="M120.67404680201267 -11.88131445838208 C130.21637436983985 -8.552538946273687, 139.75870193766704 -5.223763434165294, 149 -2" stroke="#000000" stroke-width="1.5" fill="none"></path></g></g><g><g transform="translate(171 235.5) rotate(0 -56 0)"><path d="M0 0 C-18.666666666666668 0, -93.33333333333333 0, -112 0" stroke="#000000" stroke-width="1.5" fill="none" stroke-dasharray="12 8"></path></g><g transform="translate(171 235.5) rotate(0 -56 0)"><path d="M-83.80922137642276 -10.260604299770062 C-94.39761586647327 -6.406743876723409, -104.98601035652378 -2.552883453676756, -112 0" stroke="#000000" stroke-width="1.5" fill="none"></path></g><g transform="translate(171 235.5) rotate(0 -56 0)"><path d="M-83.80922137642276 10.260604299770062 C-94.39761586647327 6.406743876723409, -104.98601035652378 2.552883453676756, -112 0" stroke="#000000" stroke-width="1.5" fill="none"></path></g></g><g><g transform="translate(783.0000000000002 281.5) rotate(0 72 -1)"><path d="M0 0 C24 -0.3333333333333333, 120 -1.6666666666666667, 144 -2" stroke="#000000" stroke-width="1.5" fill="none" stroke-dasharray="12 8"></path></g><g transform="translate(783.0000000000002 281.5) rotate(0 72 -1)"><path d="M115.95443465112763 8.65111563462387 C123.47127949559302 5.796376118768604, 130.9881243400584 2.9416366029133387, 144 -2" stroke="#000000" stroke-width="1.5" fill="none"></path></g><g transform="translate(783.0000000000002 281.5) rotate(0 72 -1)"><path d="M115.66944535109134 -11.868113967988023 C123.26267376365591 -9.223236580702618, 130.85590217622047 -6.578359193417212, 144 -2" stroke="#000000" stroke-width="1.5" fill="none"></path></g></g><g><g transform="translate(164 323.5) rotate(0 -49.5 -1.5)"><path d="M0 0 C-16.5 -0.5, -82.5 -2.5, -99 -3" stroke="#000000" stroke-width="1.5" fill="none" stroke-dasharray="12 8"></path></g><g transform="translate(164 323.5) rotate(0 -49.5 -1.5)"><path d="M-70.51137115051662 -12.40202245670492 C-79.52609464541482 -9.426918488457769, -88.54081814031301 -6.451814520210618, -99 -3" stroke="#000000" stroke-width="1.5" fill="none"></path></g><g transform="translate(164 323.5) rotate(0 -49.5 -1.5)"><path d="M-71.13294063660973 8.109770584367755 C-79.9509794444491 4.594279879674012, -88.76901825228849 1.0787891749802698, -99 -3" stroke="#000000" stroke-width="1.5" fill="none"></path></g></g><g transform="translate(962.0000000000002 67) rotate(0 8 17)"><text x="0" y="27" font-family="Cascadia" font-size="28px" fill="#e67700" text-anchor="start" style="white-space: pre;" direction="ltr">0</text></g><g transform="translate(17 112.5) rotate(0 8 17)"><text x="0" y="27" font-family="Cascadia" font-size="28px" fill="#e67700" text-anchor="start" style="white-space: pre;" direction="ltr">1</text></g><g transform="translate(965.0000000000002 169.5) rotate(0 8 17)"><text x="0" y="27" font-family="Cascadia" font-size="28px" fill="#e67700" text-anchor="start" style="white-space: pre;" direction="ltr">2</text></g><g transform="translate(10 218.5) rotate(0 8 17)"><text x="0" y="27" font-family="Cascadia" font-size="28px" fill="#e67700" text-anchor="start" style="white-space: pre;" direction="ltr">3</text></g><g transform="translate(962.0000000000002 264.5) rotate(0 8 17)"><text x="0" y="27" font-family="Cascadia" font-size="28px" fill="#e67700" text-anchor="start" style="white-space: pre;" direction="ltr">4</text></g><g transform="translate(21 310.5) rotate(0 8 17)"><text x="0" y="27" font-family="Cascadia" font-size="28px" fill="#e67700" text-anchor="start" style="white-space: pre;" direction="ltr">5</text></g></svg>