<?xml version="1.0" encoding="UTF-8" standalone="no"?>
<!DOCTYPE svg PUBLIC "-//W3C//DTD SVG 1.1//EN"
 "http://www.w3.org/Graphics/SVG/1.1/DTD/svg11.dtd">
<!-- Generated by graphviz version 2.40.1 (20161225.0304)
 -->
<!-- Title: g Pages: 1 -->
<svg width="242pt" height="234pt"
 viewBox="0.00 0.00 241.75 233.80" xmlns="http://www.w3.org/2000/svg" xmlns:xlink="http://www.w3.org/1999/xlink">
<g id="graph0" class="graph" transform="scale(1 1) rotate(0) translate(4 229.8)">
<title>g</title>
<polygon fill="#ffffff" stroke="transparent" points="-4,4 -4,-229.8 237.75,-229.8 237.75,4 -4,4"/>
<text text-anchor="middle" x="116.875" y="-8.2" font-family="Times,serif" font-size="14.00" fill="#000000">© Enes Usta</text>
<!-- node0 -->
<g id="node1" class="node">
<title>node0</title>
<polygon fill="none" stroke="#000000" points="109.25,-199.3 109.25,-225.3 179.75,-225.3 179.75,-199.3 109.25,-199.3"/>
<text text-anchor="middle" x="119.125" y="-207.8" font-family="Times,serif" font-size="15.00" fill="#000000"> </text>
<polyline fill="none" stroke="#000000" points="129,-199.3 129,-225.3 "/>
<text text-anchor="middle" x="144.5" y="-207.8" font-family="Times,serif" font-size="15.00" fill="#000000">10</text>
<polyline fill="none" stroke="#000000" points="160,-199.3 160,-225.3 "/>
<text text-anchor="middle" x="169.875" y="-207.8" font-family="Times,serif" font-size="15.00" fill="#000000"> </text>
</g>
<!-- node1 -->
<g id="node2" class="node">
<title>node1</title>
<polygon fill="none" stroke="#000000" points="59,-136.3 59,-162.3 122,-162.3 122,-136.3 59,-136.3"/>
<text text-anchor="middle" x="68.875" y="-144.8" font-family="Times,serif" font-size="15.00" fill="#000000"> </text>
<polyline fill="none" stroke="#000000" points="78.75,-136.3 78.75,-162.3 "/>
<text text-anchor="middle" x="90.5" y="-144.8" font-family="Times,serif" font-size="15.00" fill="#000000">8</text>
<polyline fill="none" stroke="#000000" points="102.25,-136.3 102.25,-162.3 "/>
<text text-anchor="middle" x="112.125" y="-144.8" font-family="Times,serif" font-size="15.00" fill="#000000"> </text>
</g>
<!-- node0&#45;&gt;node1 -->
<g id="edge1" class="edge">
<title>node0:f0&#45;&gt;node1:f1</title>
<path fill="none" stroke="#000000" d="M119.5,-199.3C119.5,-182.4872 100.7219,-182.3033 93.3867,-171.9861"/>
<polygon fill="#000000" stroke="#000000" points="96.7104,-170.8838 90.5,-162.3 90.0019,-172.8831 96.7104,-170.8838"/>
</g>
<!-- node2 -->
<g id="node3" class="node">
<title>node2</title>
<polygon fill="none" stroke="#000000" points="163.25,-136.3 163.25,-162.3 233.75,-162.3 233.75,-136.3 163.25,-136.3"/>
<text text-anchor="middle" x="173.125" y="-144.8" font-family="Times,serif" font-size="15.00" fill="#000000"> </text>
<polyline fill="none" stroke="#000000" points="183,-136.3 183,-162.3 "/>
<text text-anchor="middle" x="198.5" y="-144.8" font-family="Times,serif" font-size="15.00" fill="#000000">24</text>
<polyline fill="none" stroke="#000000" points="214,-136.3 214,-162.3 "/>
<text text-anchor="middle" x="223.875" y="-144.8" font-family="Times,serif" font-size="15.00" fill="#000000"> </text>
</g>
<!-- node0&#45;&gt;node2 -->
<g id="edge2" class="edge">
<title>node0:f2&#45;&gt;node2:f1</title>
<path fill="none" stroke="#000000" d="M169.5,-199.3C169.5,-182.4872 188.2781,-182.3033 195.6133,-171.9861"/>
<polygon fill="#000000" stroke="#000000" points="198.9981,-172.8831 198.5,-162.3 192.2896,-170.8838 198.9981,-172.8831"/>
</g>
<!-- node3 -->
<g id="node4" class="node">
<title>node3</title>
<polygon fill="none" stroke="#000000" points="0,-73.3 0,-99.3 63,-99.3 63,-73.3 0,-73.3"/>
<text text-anchor="middle" x="9.875" y="-81.8" font-family="Times,serif" font-size="15.00" fill="#000000"> </text>
<polyline fill="none" stroke="#000000" points="19.75,-73.3 19.75,-99.3 "/>
<text text-anchor="middle" x="31.5" y="-81.8" font-family="Times,serif" font-size="15.00" fill="#000000">7</text>
<polyline fill="none" stroke="#000000" points="43.25,-73.3 43.25,-99.3 "/>
<text text-anchor="middle" x="53.125" y="-81.8" font-family="Times,serif" font-size="15.00" fill="#000000"> </text>
</g>
<!-- node1&#45;&gt;node3 -->
<g id="edge3" class="edge">
<title>node1:f0&#45;&gt;node3:f1</title>
<path fill="none" stroke="#000000" d="M68.5,-136.3C68.5,-117.2228 43.6022,-120.1956 34.6546,-109.0426"/>
<polygon fill="#000000" stroke="#000000" points="37.9103,-107.7355 31.5,-99.3 31.2507,-109.8919 37.9103,-107.7355"/>
</g>
<!-- node5 -->
<g id="node6" class="node">
<title>node5</title>
<polygon fill="none" stroke="#000000" points="81,-73.3 81,-99.3 144,-99.3 144,-73.3 81,-73.3"/>
<text text-anchor="middle" x="90.875" y="-81.8" font-family="Times,serif" font-size="15.00" fill="#000000"> </text>
<polyline fill="none" stroke="#000000" points="100.75,-73.3 100.75,-99.3 "/>
<text text-anchor="middle" x="112.5" y="-81.8" font-family="Times,serif" font-size="15.00" fill="#000000">9</text>
<polyline fill="none" stroke="#000000" points="124.25,-73.3 124.25,-99.3 "/>
<text text-anchor="middle" x="134.125" y="-81.8" font-family="Times,serif" font-size="15.00" fill="#000000"> </text>
</g>
<!-- node1&#45;&gt;node5 -->
<g id="edge5" class="edge">
<title>node1:f2&#45;&gt;node5:f1</title>
<path fill="none" stroke="#000000" d="M112.5,-136.3C112.5,-123.8382 112.5,-118.4592 112.5,-109.4281"/>
<polygon fill="#000000" stroke="#000000" points="116.0001,-109.3 112.5,-99.3 109.0001,-109.3 116.0001,-109.3"/>
</g>
<!-- node4 -->
<g id="node5" class="node">
<title>node4</title>
<polygon fill="none" stroke="#000000" points="162.25,-73.3 162.25,-99.3 232.75,-99.3 232.75,-73.3 162.25,-73.3"/>
<text text-anchor="middle" x="172.125" y="-81.8" font-family="Times,serif" font-size="15.00" fill="#000000"> </text>
<polyline fill="none" stroke="#000000" points="182,-73.3 182,-99.3 "/>
<text text-anchor="middle" x="197.5" y="-81.8" font-family="Times,serif" font-size="15.00" fill="#000000">18</text>
<polyline fill="none" stroke="#000000" points="213,-73.3 213,-99.3 "/>
<text text-anchor="middle" x="222.875" y="-81.8" font-family="Times,serif" font-size="15.00" fill="#000000"> </text>
</g>
<!-- node2&#45;&gt;node4 -->
<g id="edge4" class="edge">
<title>node2:f0&#45;&gt;node4:f1</title>
<path fill="none" stroke="#000000" d="M173.5,-136.3C173.5,-120.8336 188.4429,-118.9421 194.7469,-109.2027"/>
<polygon fill="#000000" stroke="#000000" points="198.1935,-109.8721 197.5,-99.3 191.4492,-107.9971 198.1935,-109.8721"/>
</g>
</g>
</svg>
