<?xml version="1.0" encoding="UTF-8" standalone="no"?>
<!DOCTYPE svg PUBLIC "-//W3C//DTD SVG 1.1//EN"
 "http://www.w3.org/Graphics/SVG/1.1/DTD/svg11.dtd">
<!-- Generated by graphviz version 2.40.1 (20161225.0304)
 -->
<!-- Title: g Pages: 1 -->
<svg width="184pt" height="234pt"
 viewBox="0.00 0.00 183.75 233.80" xmlns="http://www.w3.org/2000/svg" xmlns:xlink="http://www.w3.org/1999/xlink">
<g id="graph0" class="graph" transform="scale(1 1) rotate(0) translate(4 229.8)">
<title>g</title>
<polygon fill="#ffffff" stroke="transparent" points="-4,4 -4,-229.8 179.75,-229.8 179.75,4 -4,4"/>
<text text-anchor="middle" x="87.875" y="-8.2" font-family="Times,serif" font-size="14.00" fill="#000000">© Enes Usta</text>
<!-- node0 -->
<g id="node1" class="node">
<title>node0</title>
<polygon fill="none" stroke="#000000" points="62.25,-199.3 62.25,-225.3 132.75,-225.3 132.75,-199.3 62.25,-199.3"/>
<text text-anchor="middle" x="72.125" y="-207.8" font-family="Times,serif" font-size="15.00" fill="#000000"> </text>
<polyline fill="none" stroke="#000000" points="82,-199.3 82,-225.3 "/>
<text text-anchor="middle" x="97.5" y="-207.8" font-family="Times,serif" font-size="15.00" fill="#000000">10</text>
<polyline fill="none" stroke="#000000" points="113,-199.3 113,-225.3 "/>
<text text-anchor="middle" x="122.875" y="-207.8" font-family="Times,serif" font-size="15.00" fill="#000000"> </text>
</g>
<!-- node1 -->
<g id="node2" class="node">
<title>node1</title>
<polygon fill="none" stroke="#000000" points="23,-136.3 23,-162.3 86,-162.3 86,-136.3 23,-136.3"/>
<text text-anchor="middle" x="32.875" y="-144.8" font-family="Times,serif" font-size="15.00" fill="#000000"> </text>
<polyline fill="none" stroke="#000000" points="42.75,-136.3 42.75,-162.3 "/>
<text text-anchor="middle" x="54.5" y="-144.8" font-family="Times,serif" font-size="15.00" fill="#000000">8</text>
<polyline fill="none" stroke="#000000" points="66.25,-136.3 66.25,-162.3 "/>
<text text-anchor="middle" x="76.125" y="-144.8" font-family="Times,serif" font-size="15.00" fill="#000000"> </text>
</g>
<!-- node0&#45;&gt;node1 -->
<g id="edge1" class="edge">
<title>node0:f0&#45;&gt;node1:f1</title>
<path fill="none" stroke="#000000" d="M72.5,-199.3C72.5,-185.0132 61.5137,-181.6281 56.7072,-172.1108"/>
<polygon fill="#000000" stroke="#000000" points="60.1096,-171.2879 54.5,-162.3 53.2803,-172.8244 60.1096,-171.2879"/>
</g>
<!-- node2 -->
<g id="node3" class="node">
<title>node2</title>
<polygon fill="none" stroke="#000000" points="105.25,-136.3 105.25,-162.3 175.75,-162.3 175.75,-136.3 105.25,-136.3"/>
<text text-anchor="middle" x="115.125" y="-144.8" font-family="Times,serif" font-size="15.00" fill="#000000"> </text>
<polyline fill="none" stroke="#000000" points="125,-136.3 125,-162.3 "/>
<text text-anchor="middle" x="140.5" y="-144.8" font-family="Times,serif" font-size="15.00" fill="#000000">24</text>
<polyline fill="none" stroke="#000000" points="156,-136.3 156,-162.3 "/>
<text text-anchor="middle" x="165.875" y="-144.8" font-family="Times,serif" font-size="15.00" fill="#000000"> </text>
</g>
<!-- node0&#45;&gt;node2 -->
<g id="edge2" class="edge">
<title>node0:f2&#45;&gt;node2:f1</title>
<path fill="none" stroke="#000000" d="M122.5,-199.3C122.5,-185.0132 133.4863,-181.6281 138.2928,-172.1108"/>
<polygon fill="#000000" stroke="#000000" points="141.7197,-172.8244 140.5,-162.3 134.8904,-171.2879 141.7197,-172.8244"/>
</g>
<!-- node3 -->
<g id="node4" class="node">
<title>node3</title>
<polygon fill="none" stroke="#000000" points="0,-73.3 0,-99.3 63,-99.3 63,-73.3 0,-73.3"/>
<text text-anchor="middle" x="9.875" y="-81.8" font-family="Times,serif" font-size="15.00" fill="#000000"> </text>
<polyline fill="none" stroke="#000000" points="19.75,-73.3 19.75,-99.3 "/>
<text text-anchor="middle" x="31.5" y="-81.8" font-family="Times,serif" font-size="15.00" fill="#000000">7</text>
<polyline fill="none" stroke="#000000" points="43.25,-73.3 43.25,-99.3 "/>
<text text-anchor="middle" x="53.125" y="-81.8" font-family="Times,serif" font-size="15.00" fill="#000000"> </text>
</g>
<!-- node1&#45;&gt;node3 -->
<g id="edge3" class="edge">
<title>node1:f0&#45;&gt;node3:f1</title>
<path fill="none" stroke="#000000" d="M32.5,-136.3C32.5,-123.8336 31.9257,-118.4604 31.6476,-109.4298"/>
<polygon fill="#000000" stroke="#000000" points="35.1454,-109.2479 31.5,-99.3 28.1461,-109.3499 35.1454,-109.2479"/>
</g>
<!-- node4 -->
<g id="node5" class="node">
<title>node4</title>
<polygon fill="none" stroke="#000000" points="81.25,-73.3 81.25,-99.3 151.75,-99.3 151.75,-73.3 81.25,-73.3"/>
<text text-anchor="middle" x="91.125" y="-81.8" font-family="Times,serif" font-size="15.00" fill="#000000"> </text>
<polyline fill="none" stroke="#000000" points="101,-73.3 101,-99.3 "/>
<text text-anchor="middle" x="116.5" y="-81.8" font-family="Times,serif" font-size="15.00" fill="#000000">18</text>
<polyline fill="none" stroke="#000000" points="132,-73.3 132,-99.3 "/>
<text text-anchor="middle" x="141.875" y="-81.8" font-family="Times,serif" font-size="15.00" fill="#000000"> </text>
</g>
<!-- node2&#45;&gt;node4 -->
<g id="edge4" class="edge">
<title>node2:f0&#45;&gt;node4:f1</title>
<path fill="none" stroke="#000000" d="M115.5,-136.3C115.5,-123.8336 116.0743,-118.4604 116.3524,-109.4298"/>
<polygon fill="#000000" stroke="#000000" points="119.8539,-109.3499 116.5,-99.3 112.8546,-109.2479 119.8539,-109.3499"/>
</g>
</g>
</svg>
