<?xml version="1.0" encoding="UTF-8" standalone="no"?>
<!DOCTYPE svg PUBLIC "-//W3C//DTD SVG 1.1//EN"
 "http://www.w3.org/Graphics/SVG/1.1/DTD/svg11.dtd">
<!-- Generated by graphviz version 2.40.1 (20161225.0304)
 -->
<!-- Title: g Pages: 1 -->
<svg width="182pt" height="234pt"
 viewBox="0.00 0.00 181.75 233.80" xmlns="http://www.w3.org/2000/svg" xmlns:xlink="http://www.w3.org/1999/xlink">
<g id="graph0" class="graph" transform="scale(1 1) rotate(0) translate(4 229.8)">
<title>g</title>
<polygon fill="#ffffff" stroke="transparent" points="-4,4 -4,-229.8 177.75,-229.8 177.75,4 -4,4"/>
<text text-anchor="middle" x="86.875" y="-8.2" font-family="Times,serif" font-size="14.00" fill="#000000">© Enes Usta</text>
<!-- node0 -->
<g id="node1" class="node">
<title>node0</title>
<polygon fill="none" stroke="#000000" points="60.25,-199.3 60.25,-225.3 130.75,-225.3 130.75,-199.3 60.25,-199.3"/>
<text text-anchor="middle" x="70.125" y="-207.8" font-family="Times,serif" font-size="15.00" fill="#000000"> </text>
<polyline fill="none" stroke="#000000" points="80,-199.3 80,-225.3 "/>
<text text-anchor="middle" x="95.5" y="-207.8" font-family="Times,serif" font-size="15.00" fill="#000000">10</text>
<polyline fill="none" stroke="#000000" points="111,-199.3 111,-225.3 "/>
<text text-anchor="middle" x="120.875" y="-207.8" font-family="Times,serif" font-size="15.00" fill="#000000"> </text>
</g>
<!-- node1 -->
<g id="node2" class="node">
<title>node1</title>
<polygon fill="none" stroke="#000000" points="22,-136.3 22,-162.3 85,-162.3 85,-136.3 22,-136.3"/>
<text text-anchor="middle" x="31.875" y="-144.8" font-family="Times,serif" font-size="15.00" fill="#000000"> </text>
<polyline fill="none" stroke="#000000" points="41.75,-136.3 41.75,-162.3 "/>
<text text-anchor="middle" x="53.5" y="-144.8" font-family="Times,serif" font-size="15.00" fill="#000000">8</text>
<polyline fill="none" stroke="#000000" points="65.25,-136.3 65.25,-162.3 "/>
<text text-anchor="middle" x="75.125" y="-144.8" font-family="Times,serif" font-size="15.00" fill="#000000"> </text>
</g>
<!-- node0&#45;&gt;node1 -->
<g id="edge1" class="edge">
<title>node0:f0&#45;&gt;node1:f1</title>
<path fill="none" stroke="#000000" d="M70.5,-199.3C70.5,-185.303 60.3305,-181.6498 55.7225,-172.3398"/>
<polygon fill="#000000" stroke="#000000" points="59.0787,-171.3072 53.5,-162.3 52.2441,-172.8201 59.0787,-171.3072"/>
</g>
<!-- node2 -->
<g id="node3" class="node">
<title>node2</title>
<polygon fill="none" stroke="#000000" points="103.25,-136.3 103.25,-162.3 173.75,-162.3 173.75,-136.3 103.25,-136.3"/>
<text text-anchor="middle" x="113.125" y="-144.8" font-family="Times,serif" font-size="15.00" fill="#000000"> </text>
<polyline fill="none" stroke="#000000" points="123,-136.3 123,-162.3 "/>
<text text-anchor="middle" x="138.5" y="-144.8" font-family="Times,serif" font-size="15.00" fill="#000000">24</text>
<polyline fill="none" stroke="#000000" points="154,-136.3 154,-162.3 "/>
<text text-anchor="middle" x="163.875" y="-144.8" font-family="Times,serif" font-size="15.00" fill="#000000"> </text>
</g>
<!-- node0&#45;&gt;node2 -->
<g id="edge2" class="edge">
<title>node0:f2&#45;&gt;node2:f1</title>
<path fill="none" stroke="#000000" d="M120.5,-199.3C120.5,-185.0132 131.4863,-181.6281 136.2928,-172.1108"/>
<polygon fill="#000000" stroke="#000000" points="139.7197,-172.8244 138.5,-162.3 132.8904,-171.2879 139.7197,-172.8244"/>
</g>
<!-- node3 -->
<g id="node4" class="node">
<title>node3</title>
<polygon fill="none" stroke="#000000" points="0,-73.3 0,-99.3 63,-99.3 63,-73.3 0,-73.3"/>
<text text-anchor="middle" x="9.875" y="-81.8" font-family="Times,serif" font-size="15.00" fill="#000000"> </text>
<polyline fill="none" stroke="#000000" points="19.75,-73.3 19.75,-99.3 "/>
<text text-anchor="middle" x="31.5" y="-81.8" font-family="Times,serif" font-size="15.00" fill="#000000">7</text>
<polyline fill="none" stroke="#000000" points="43.25,-73.3 43.25,-99.3 "/>
<text text-anchor="middle" x="53.125" y="-81.8" font-family="Times,serif" font-size="15.00" fill="#000000"> </text>
</g>
<!-- node1&#45;&gt;node3 -->
<g id="edge3" class="edge">
<title>node1:f0&#45;&gt;node3:f1</title>
<path fill="none" stroke="#000000" d="M31.5,-136.3C31.5,-123.8382 31.5,-118.4592 31.5,-109.4281"/>
<polygon fill="#000000" stroke="#000000" points="35.0001,-109.3 31.5,-99.3 28.0001,-109.3 35.0001,-109.3"/>
</g>
</g>
</svg>
