<?xml version="1.0" encoding="UTF-8" standalone="no"?>
<!DOCTYPE svg PUBLIC "-//W3C//DTD SVG 1.1//EN"
 "http://www.w3.org/Graphics/SVG/1.1/DTD/svg11.dtd">
<!-- Generated by graphviz version 2.40.1 (20161225.0304)
 -->
<!-- Title: g Pages: 1 -->
<svg width="330pt" height="297pt"
 viewBox="0.00 0.00 329.75 296.80" xmlns="http://www.w3.org/2000/svg" xmlns:xlink="http://www.w3.org/1999/xlink">
<g id="graph0" class="graph" transform="scale(1 1) rotate(0) translate(4 292.8)">
<title>g</title>
<polygon fill="#ffffff" stroke="transparent" points="-4,4 -4,-292.8 325.75,-292.8 325.75,4 -4,4"/>
<text text-anchor="middle" x="160.875" y="-8.2" font-family="Times,serif" font-size="14.00" fill="#000000">© Enes Usta</text>
<!-- node0 -->
<g id="node1" class="node">
<title>node0</title>
<polygon fill="none" stroke="#000000" points="121.25,-262.3 121.25,-288.3 191.75,-288.3 191.75,-262.3 121.25,-262.3"/>
<text text-anchor="middle" x="131.125" y="-270.8" font-family="Times,serif" font-size="15.00" fill="#000000"> </text>
<polyline fill="none" stroke="#000000" points="141,-262.3 141,-288.3 "/>
<text text-anchor="middle" x="156.5" y="-270.8" font-family="Times,serif" font-size="15.00" fill="#000000">10</text>
<polyline fill="none" stroke="#000000" points="172,-262.3 172,-288.3 "/>
<text text-anchor="middle" x="181.875" y="-270.8" font-family="Times,serif" font-size="15.00" fill="#000000"> </text>
</g>
<!-- node1 -->
<g id="node2" class="node">
<title>node1</title>
<polygon fill="none" stroke="#000000" points="59,-199.3 59,-225.3 122,-225.3 122,-199.3 59,-199.3"/>
<text text-anchor="middle" x="68.875" y="-207.8" font-family="Times,serif" font-size="15.00" fill="#000000"> </text>
<polyline fill="none" stroke="#000000" points="78.75,-199.3 78.75,-225.3 "/>
<text text-anchor="middle" x="90.5" y="-207.8" font-family="Times,serif" font-size="15.00" fill="#000000">8</text>
<polyline fill="none" stroke="#000000" points="102.25,-199.3 102.25,-225.3 "/>
<text text-anchor="middle" x="112.125" y="-207.8" font-family="Times,serif" font-size="15.00" fill="#000000"> </text>
</g>
<!-- node0&#45;&gt;node1 -->
<g id="edge1" class="edge">
<title>node0:f0&#45;&gt;node1:f1</title>
<path fill="none" stroke="#000000" d="M131.5,-262.3C131.5,-241.9735 103.3826,-246.7714 93.7172,-235.0814"/>
<polygon fill="#000000" stroke="#000000" points="96.9493,-233.7058 90.5,-225.3 90.2997,-235.8929 96.9493,-233.7058"/>
</g>
<!-- node2 -->
<g id="node3" class="node">
<title>node2</title>
<polygon fill="none" stroke="#000000" points="187.25,-199.3 187.25,-225.3 257.75,-225.3 257.75,-199.3 187.25,-199.3"/>
<text text-anchor="middle" x="197.125" y="-207.8" font-family="Times,serif" font-size="15.00" fill="#000000"> </text>
<polyline fill="none" stroke="#000000" points="207,-199.3 207,-225.3 "/>
<text text-anchor="middle" x="222.5" y="-207.8" font-family="Times,serif" font-size="15.00" fill="#000000">24</text>
<polyline fill="none" stroke="#000000" points="238,-199.3 238,-225.3 "/>
<text text-anchor="middle" x="247.875" y="-207.8" font-family="Times,serif" font-size="15.00" fill="#000000"> </text>
</g>
<!-- node0&#45;&gt;node2 -->
<g id="edge2" class="edge">
<title>node0:f2&#45;&gt;node2:f1</title>
<path fill="none" stroke="#000000" d="M181.5,-262.3C181.5,-241.9735 209.6174,-246.7714 219.2828,-235.0814"/>
<polygon fill="#000000" stroke="#000000" points="222.7003,-235.8929 222.5,-225.3 216.0507,-233.7058 222.7003,-235.8929"/>
</g>
<!-- node3 -->
<g id="node4" class="node">
<title>node3</title>
<polygon fill="none" stroke="#000000" points="0,-136.3 0,-162.3 63,-162.3 63,-136.3 0,-136.3"/>
<text text-anchor="middle" x="9.875" y="-144.8" font-family="Times,serif" font-size="15.00" fill="#000000"> </text>
<polyline fill="none" stroke="#000000" points="19.75,-136.3 19.75,-162.3 "/>
<text text-anchor="middle" x="31.5" y="-144.8" font-family="Times,serif" font-size="15.00" fill="#000000">7</text>
<polyline fill="none" stroke="#000000" points="43.25,-136.3 43.25,-162.3 "/>
<text text-anchor="middle" x="53.125" y="-144.8" font-family="Times,serif" font-size="15.00" fill="#000000"> </text>
</g>
<!-- node1&#45;&gt;node3 -->
<g id="edge3" class="edge">
<title>node1:f0&#45;&gt;node3:f1</title>
<path fill="none" stroke="#000000" d="M68.5,-199.3C68.5,-180.2228 43.6022,-183.1956 34.6546,-172.0426"/>
<polygon fill="#000000" stroke="#000000" points="37.9103,-170.7355 31.5,-162.3 31.2507,-172.8919 37.9103,-170.7355"/>
</g>
<!-- node5 -->
<g id="node6" class="node">
<title>node5</title>
<polygon fill="none" stroke="#000000" points="81,-136.3 81,-162.3 144,-162.3 144,-136.3 81,-136.3"/>
<text text-anchor="middle" x="90.875" y="-144.8" font-family="Times,serif" font-size="15.00" fill="#000000"> </text>
<polyline fill="none" stroke="#000000" points="100.75,-136.3 100.75,-162.3 "/>
<text text-anchor="middle" x="112.5" y="-144.8" font-family="Times,serif" font-size="15.00" fill="#000000">9</text>
<polyline fill="none" stroke="#000000" points="124.25,-136.3 124.25,-162.3 "/>
<text text-anchor="middle" x="134.125" y="-144.8" font-family="Times,serif" font-size="15.00" fill="#000000"> </text>
</g>
<!-- node1&#45;&gt;node5 -->
<g id="edge5" class="edge">
<title>node1:f2&#45;&gt;node5:f1</title>
<path fill="none" stroke="#000000" d="M112.5,-199.3C112.5,-186.8382 112.5,-181.4592 112.5,-172.4281"/>
<polygon fill="#000000" stroke="#000000" points="116.0001,-172.3 112.5,-162.3 109.0001,-172.3 116.0001,-172.3"/>
</g>
<!-- node4 -->
<g id="node5" class="node">
<title>node4</title>
<polygon fill="none" stroke="#000000" points="162.25,-136.3 162.25,-162.3 232.75,-162.3 232.75,-136.3 162.25,-136.3"/>
<text text-anchor="middle" x="172.125" y="-144.8" font-family="Times,serif" font-size="15.00" fill="#000000"> </text>
<polyline fill="none" stroke="#000000" points="182,-136.3 182,-162.3 "/>
<text text-anchor="middle" x="197.5" y="-144.8" font-family="Times,serif" font-size="15.00" fill="#000000">18</text>
<polyline fill="none" stroke="#000000" points="213,-136.3 213,-162.3 "/>
<text text-anchor="middle" x="222.875" y="-144.8" font-family="Times,serif" font-size="15.00" fill="#000000"> </text>
</g>
<!-- node2&#45;&gt;node4 -->
<g id="edge4" class="edge">
<title>node2:f0&#45;&gt;node4:f1</title>
<path fill="none" stroke="#000000" d="M197.5,-199.3C197.5,-186.8382 197.5,-181.4592 197.5,-172.4281"/>
<polygon fill="#000000" stroke="#000000" points="201.0001,-172.3 197.5,-162.3 194.0001,-172.3 201.0001,-172.3"/>
</g>
<!-- node6 -->
<g id="node7" class="node">
<title>node6</title>
<polygon fill="none" stroke="#000000" points="251.25,-136.3 251.25,-162.3 321.75,-162.3 321.75,-136.3 251.25,-136.3"/>
<text text-anchor="middle" x="261.125" y="-144.8" font-family="Times,serif" font-size="15.00" fill="#000000"> </text>
<polyline fill="none" stroke="#000000" points="271,-136.3 271,-162.3 "/>
<text text-anchor="middle" x="286.5" y="-144.8" font-family="Times,serif" font-size="15.00" fill="#000000">26</text>
<polyline fill="none" stroke="#000000" points="302,-136.3 302,-162.3 "/>
<text text-anchor="middle" x="311.875" y="-144.8" font-family="Times,serif" font-size="15.00" fill="#000000"> </text>
</g>
<!-- node2&#45;&gt;node6 -->
<g id="edge6" class="edge">
<title>node2:f2&#45;&gt;node6:f1</title>
<path fill="none" stroke="#000000" d="M247.5,-199.3C247.5,-179.5138 274.2458,-183.5097 283.4397,-171.8986"/>
<polygon fill="#000000" stroke="#000000" points="286.7969,-172.8907 286.5,-162.3 280.1277,-170.7643 286.7969,-172.8907"/>
</g>
<!-- node7 -->
<g id="node8" class="node">
<title>node7</title>
<polygon fill="none" stroke="#000000" points="137.25,-73.3 137.25,-99.3 207.75,-99.3 207.75,-73.3 137.25,-73.3"/>
<text text-anchor="middle" x="147.125" y="-81.8" font-family="Times,serif" font-size="15.00" fill="#000000"> </text>
<polyline fill="none" stroke="#000000" points="157,-73.3 157,-99.3 "/>
<text text-anchor="middle" x="172.5" y="-81.8" font-family="Times,serif" font-size="15.00" fill="#000000">15</text>
<polyline fill="none" stroke="#000000" points="188,-73.3 188,-99.3 "/>
<text text-anchor="middle" x="197.875" y="-81.8" font-family="Times,serif" font-size="15.00" fill="#000000"> </text>
</g>
<!-- node4&#45;&gt;node7 -->
<g id="edge7" class="edge">
<title>node4:f0&#45;&gt;node7:f1</title>
<path fill="none" stroke="#000000" d="M172.5,-136.3C172.5,-123.8382 172.5,-118.4592 172.5,-109.4281"/>
<polygon fill="#000000" stroke="#000000" points="176.0001,-109.3 172.5,-99.3 169.0001,-109.3 176.0001,-109.3"/>
</g>
</g>
</svg>
