<?xml version="1.0" encoding="UTF-8" standalone="no"?>
<!DOCTYPE svg PUBLIC "-//W3C//DTD SVG 1.1//EN"
 "http://www.w3.org/Graphics/SVG/1.1/DTD/svg11.dtd">
<!-- Generated by graphviz version 2.40.1 (20161225.0304)
 -->
<!-- Title: g Pages: 1 -->
<svg width="100pt" height="171pt"
 viewBox="0.00 0.00 99.75 170.80" xmlns="http://www.w3.org/2000/svg" xmlns:xlink="http://www.w3.org/1999/xlink">
<g id="graph0" class="graph" transform="scale(1 1) rotate(0) translate(4 166.8)">
<title>g</title>
<polygon fill="#ffffff" stroke="transparent" points="-4,4 -4,-166.8 95.75,-166.8 95.75,4 -4,4"/>
<text text-anchor="middle" x="45.875" y="-8.2" font-family="Times,serif" font-size="14.00" fill="#000000">© Enes Usta</text>
<!-- node0 -->
<g id="node1" class="node">
<title>node0</title>
<polygon fill="none" stroke="#000000" points="21.25,-136.3 21.25,-162.3 91.75,-162.3 91.75,-136.3 21.25,-136.3"/>
<text text-anchor="middle" x="31.125" y="-144.8" font-family="Times,serif" font-size="15.00" fill="#000000"> </text>
<polyline fill="none" stroke="#000000" points="41,-136.3 41,-162.3 "/>
<text text-anchor="middle" x="56.5" y="-144.8" font-family="Times,serif" font-size="15.00" fill="#000000">10</text>
<polyline fill="none" stroke="#000000" points="72,-136.3 72,-162.3 "/>
<text text-anchor="middle" x="81.875" y="-144.8" font-family="Times,serif" font-size="15.00" fill="#000000"> </text>
</g>
<!-- node1 -->
<g id="node2" class="node">
<title>node1</title>
<polygon fill="none" stroke="#000000" points="0,-73.3 0,-99.3 63,-99.3 63,-73.3 0,-73.3"/>
<text text-anchor="middle" x="9.875" y="-81.8" font-family="Times,serif" font-size="15.00" fill="#000000"> </text>
<polyline fill="none" stroke="#000000" points="19.75,-73.3 19.75,-99.3 "/>
<text text-anchor="middle" x="31.5" y="-81.8" font-family="Times,serif" font-size="15.00" fill="#000000">8</text>
<polyline fill="none" stroke="#000000" points="43.25,-73.3 43.25,-99.3 "/>
<text text-anchor="middle" x="53.125" y="-81.8" font-family="Times,serif" font-size="15.00" fill="#000000"> </text>
</g>
<!-- node0&#45;&gt;node1 -->
<g id="edge1" class="edge">
<title>node0:f0&#45;&gt;node1:f1</title>
<path fill="none" stroke="#000000" d="M31.5,-136.3C31.5,-123.8382 31.5,-118.4592 31.5,-109.4281"/>
<polygon fill="#000000" stroke="#000000" points="35.0001,-109.3 31.5,-99.3 28.0001,-109.3 35.0001,-109.3"/>
</g>
</g>
</svg>
