<?xml version="1.0" encoding="UTF-8" standalone="no"?>
<!DOCTYPE svg PUBLIC "-//W3C//DTD SVG 1.1//EN"
 "http://www.w3.org/Graphics/SVG/1.1/DTD/svg11.dtd">
<!-- Generated by graphviz version 2.40.1 (20161225.0304)
 -->
<!-- Title: g Pages: 1 -->
<svg width="330pt" height="234pt"
 viewBox="0.00 0.00 329.75 233.80" xmlns="http://www.w3.org/2000/svg" xmlns:xlink="http://www.w3.org/1999/xlink">
<g id="graph0" class="graph" transform="scale(1 1) rotate(0) translate(4 229.8)">
<title>g</title>
<polygon fill="#ffffff" stroke="transparent" points="-4,4 -4,-229.8 325.75,-229.8 325.75,4 -4,4"/>
<text text-anchor="middle" x="160.875" y="-8.2" font-family="Times,serif" font-size="14.00" fill="#000000">© Enes Usta</text>
<!-- node0 -->
<g id="node1" class="node">
<title>node0</title>
<polygon fill="none" stroke="#000000" points="121.25,-199.3 121.25,-225.3 191.75,-225.3 191.75,-199.3 121.25,-199.3"/>
<text text-anchor="middle" x="131.125" y="-207.8" font-family="Times,serif" font-size="15.00" fill="#000000"> </text>
<polyline fill="none" stroke="#000000" points="141,-199.3 141,-225.3 "/>
<text text-anchor="middle" x="156.5" y="-207.8" font-family="Times,serif" font-size="15.00" fill="#000000">10</text>
<polyline fill="none" stroke="#000000" points="172,-199.3 172,-225.3 "/>
<text text-anchor="middle" x="181.875" y="-207.8" font-family="Times,serif" font-size="15.00" fill="#000000"> </text>
</g>
<!-- node1 -->
<g id="node2" class="node">
<title>node1</title>
<polygon fill="none" stroke="#000000" points="59,-136.3 59,-162.3 122,-162.3 122,-136.3 59,-136.3"/>
<text text-anchor="middle" x="68.875" y="-144.8" font-family="Times,serif" font-size="15.00" fill="#000000"> </text>
<polyline fill="none" stroke="#000000" points="78.75,-136.3 78.75,-162.3 "/>
<text text-anchor="middle" x="90.5" y="-144.8" font-family="Times,serif" font-size="15.00" fill="#000000">8</text>
<polyline fill="none" stroke="#000000" points="102.25,-136.3 102.25,-162.3 "/>
<text text-anchor="middle" x="112.125" y="-144.8" font-family="Times,serif" font-size="15.00" fill="#000000"> </text>
</g>
<!-- node0&#45;&gt;node1 -->
<g id="edge1" class="edge">
<title>node0:f0&#45;&gt;node1:f1</title>
<path fill="none" stroke="#000000" d="M131.5,-199.3C131.5,-178.9735 103.3826,-183.7714 93.7172,-172.0814"/>
<polygon fill="#000000" stroke="#000000" points="96.9493,-170.7058 90.5,-162.3 90.2997,-172.8929 96.9493,-170.7058"/>
</g>
<!-- node2 -->
<g id="node3" class="node">
<title>node2</title>
<polygon fill="none" stroke="#000000" points="187.25,-136.3 187.25,-162.3 257.75,-162.3 257.75,-136.3 187.25,-136.3"/>
<text text-anchor="middle" x="197.125" y="-144.8" font-family="Times,serif" font-size="15.00" fill="#000000"> </text>
<polyline fill="none" stroke="#000000" points="207,-136.3 207,-162.3 "/>
<text text-anchor="middle" x="222.5" y="-144.8" font-family="Times,serif" font-size="15.00" fill="#000000">24</text>
<polyline fill="none" stroke="#000000" points="238,-136.3 238,-162.3 "/>
<text text-anchor="middle" x="247.875" y="-144.8" font-family="Times,serif" font-size="15.00" fill="#000000"> </text>
</g>
<!-- node0&#45;&gt;node2 -->
<g id="edge2" class="edge">
<title>node0:f2&#45;&gt;node2:f1</title>
<path fill="none" stroke="#000000" d="M181.5,-199.3C181.5,-178.9735 209.6174,-183.7714 219.2828,-172.0814"/>
<polygon fill="#000000" stroke="#000000" points="222.7003,-172.8929 222.5,-162.3 216.0507,-170.7058 222.7003,-172.8929"/>
</g>
<!-- node3 -->
<g id="node4" class="node">
<title>node3</title>
<polygon fill="none" stroke="#000000" points="0,-73.3 0,-99.3 63,-99.3 63,-73.3 0,-73.3"/>
<text text-anchor="middle" x="9.875" y="-81.8" font-family="Times,serif" font-size="15.00" fill="#000000"> </text>
<polyline fill="none" stroke="#000000" points="19.75,-73.3 19.75,-99.3 "/>
<text text-anchor="middle" x="31.5" y="-81.8" font-family="Times,serif" font-size="15.00" fill="#000000">7</text>
<polyline fill="none" stroke="#000000" points="43.25,-73.3 43.25,-99.3 "/>
<text text-anchor="middle" x="53.125" y="-81.8" font-family="Times,serif" font-size="15.00" fill="#000000"> </text>
</g>
<!-- node1&#45;&gt;node3 -->
<g id="edge3" class="edge">
<title>node1:f0&#45;&gt;node3:f1</title>
<path fill="none" stroke="#000000" d="M68.5,-136.3C68.5,-117.2228 43.6022,-120.1956 34.6546,-109.0426"/>
<polygon fill="#000000" stroke="#000000" points="37.9103,-107.7355 31.5,-99.3 31.2507,-109.8919 37.9103,-107.7355"/>
</g>
<!-- node5 -->
<g id="node6" class="node">
<title>node5</title>
<polygon fill="none" stroke="#000000" points="81,-73.3 81,-99.3 144,-99.3 144,-73.3 81,-73.3"/>
<text text-anchor="middle" x="90.875" y="-81.8" font-family="Times,serif" font-size="15.00" fill="#000000"> </text>
<polyline fill="none" stroke="#000000" points="100.75,-73.3 100.75,-99.3 "/>
<text text-anchor="middle" x="112.5" y="-81.8" font-family="Times,serif" font-size="15.00" fill="#000000">9</text>
<polyline fill="none" stroke="#000000" points="124.25,-73.3 124.25,-99.3 "/>
<text text-anchor="middle" x="134.125" y="-81.8" font-family="Times,serif" font-size="15.00" fill="#000000"> </text>
</g>
<!-- node1&#45;&gt;node5 -->
<g id="edge5" class="edge">
<title>node1:f2&#45;&gt;node5:f1</title>
<path fill="none" stroke="#000000" d="M112.5,-136.3C112.5,-123.8382 112.5,-118.4592 112.5,-109.4281"/>
<polygon fill="#000000" stroke="#000000" points="116.0001,-109.3 112.5,-99.3 109.0001,-109.3 116.0001,-109.3"/>
</g>
<!-- node4 -->
<g id="node5" class="node">
<title>node4</title>
<polygon fill="none" stroke="#000000" points="162.25,-73.3 162.25,-99.3 232.75,-99.3 232.75,-73.3 162.25,-73.3"/>
<text text-anchor="middle" x="172.125" y="-81.8" font-family="Times,serif" font-size="15.00" fill="#000000"> </text>
<polyline fill="none" stroke="#000000" points="182,-73.3 182,-99.3 "/>
<text text-anchor="middle" x="197.5" y="-81.8" font-family="Times,serif" font-size="15.00" fill="#000000">18</text>
<polyline fill="none" stroke="#000000" points="213,-73.3 213,-99.3 "/>
<text text-anchor="middle" x="222.875" y="-81.8" font-family="Times,serif" font-size="15.00" fill="#000000"> </text>
</g>
<!-- node2&#45;&gt;node4 -->
<g id="edge4" class="edge">
<title>node2:f0&#45;&gt;node4:f1</title>
<path fill="none" stroke="#000000" d="M197.5,-136.3C197.5,-123.8382 197.5,-118.4592 197.5,-109.4281"/>
<polygon fill="#000000" stroke="#000000" points="201.0001,-109.3 197.5,-99.3 194.0001,-109.3 201.0001,-109.3"/>
</g>
<!-- node6 -->
<g id="node7" class="node">
<title>node6</title>
<polygon fill="none" stroke="#000000" points="251.25,-73.3 251.25,-99.3 321.75,-99.3 321.75,-73.3 251.25,-73.3"/>
<text text-anchor="middle" x="261.125" y="-81.8" font-family="Times,serif" font-size="15.00" fill="#000000"> </text>
<polyline fill="none" stroke="#000000" points="271,-73.3 271,-99.3 "/>
<text text-anchor="middle" x="286.5" y="-81.8" font-family="Times,serif" font-size="15.00" fill="#000000">26</text>
<polyline fill="none" stroke="#000000" points="302,-73.3 302,-99.3 "/>
<text text-anchor="middle" x="311.875" y="-81.8" font-family="Times,serif" font-size="15.00" fill="#000000"> </text>
</g>
<!-- node2&#45;&gt;node6 -->
<g id="edge6" class="edge">
<title>node2:f2&#45;&gt;node6:f1</title>
<path fill="none" stroke="#000000" d="M247.5,-136.3C247.5,-116.5138 274.2458,-120.5097 283.4397,-108.8986"/>
<polygon fill="#000000" stroke="#000000" points="286.7969,-109.8907 286.5,-99.3 280.1277,-107.7643 286.7969,-109.8907"/>
</g>
</g>
</svg>
