<?xml version="1.0" encoding="UTF-8" standalone="no"?>
<!DOCTYPE svg PUBLIC "-//W3C//DTD SVG 1.1//EN"
 "http://www.w3.org/Graphics/SVG/1.1/DTD/svg11.dtd">
<!-- Generated by graphviz version 2.40.1 (20161225.0304)
 -->
<!-- Title: g Pages: 1 -->
<svg width="160pt" height="171pt"
 viewBox="0.00 0.00 159.75 170.80" xmlns="http://www.w3.org/2000/svg" xmlns:xlink="http://www.w3.org/1999/xlink">
<g id="graph0" class="graph" transform="scale(1 1) rotate(0) translate(4 166.8)">
<title>g</title>
<polygon fill="#ffffff" stroke="transparent" points="-4,4 -4,-166.8 155.75,-166.8 155.75,4 -4,4"/>
<text text-anchor="middle" x="75.875" y="-8.2" font-family="Times,serif" font-size="14.00" fill="#000000">© Enes Usta</text>
<!-- node0 -->
<g id="node1" class="node">
<title>node0</title>
<polygon fill="none" stroke="#000000" points="38.25,-136.3 38.25,-162.3 108.75,-162.3 108.75,-136.3 38.25,-136.3"/>
<text text-anchor="middle" x="48.125" y="-144.8" font-family="Times,serif" font-size="15.00" fill="#000000"> </text>
<polyline fill="none" stroke="#000000" points="58,-136.3 58,-162.3 "/>
<text text-anchor="middle" x="73.5" y="-144.8" font-family="Times,serif" font-size="15.00" fill="#000000">10</text>
<polyline fill="none" stroke="#000000" points="89,-136.3 89,-162.3 "/>
<text text-anchor="middle" x="98.875" y="-144.8" font-family="Times,serif" font-size="15.00" fill="#000000"> </text>
</g>
<!-- node1 -->
<g id="node2" class="node">
<title>node1</title>
<polygon fill="none" stroke="#000000" points="0,-73.3 0,-99.3 63,-99.3 63,-73.3 0,-73.3"/>
<text text-anchor="middle" x="9.875" y="-81.8" font-family="Times,serif" font-size="15.00" fill="#000000"> </text>
<polyline fill="none" stroke="#000000" points="19.75,-73.3 19.75,-99.3 "/>
<text text-anchor="middle" x="31.5" y="-81.8" font-family="Times,serif" font-size="15.00" fill="#000000">8</text>
<polyline fill="none" stroke="#000000" points="43.25,-73.3 43.25,-99.3 "/>
<text text-anchor="middle" x="53.125" y="-81.8" font-family="Times,serif" font-size="15.00" fill="#000000"> </text>
</g>
<!-- node0&#45;&gt;node1 -->
<g id="edge1" class="edge">
<title>node0:f0&#45;&gt;node1:f1</title>
<path fill="none" stroke="#000000" d="M48.5,-136.3C48.5,-122.303 38.3305,-118.6498 33.7225,-109.3398"/>
<polygon fill="#000000" stroke="#000000" points="37.0787,-108.3072 31.5,-99.3 30.2441,-109.8201 37.0787,-108.3072"/>
</g>
<!-- node2 -->
<g id="node3" class="node">
<title>node2</title>
<polygon fill="none" stroke="#000000" points="81.25,-73.3 81.25,-99.3 151.75,-99.3 151.75,-73.3 81.25,-73.3"/>
<text text-anchor="middle" x="91.125" y="-81.8" font-family="Times,serif" font-size="15.00" fill="#000000"> </text>
<polyline fill="none" stroke="#000000" points="101,-73.3 101,-99.3 "/>
<text text-anchor="middle" x="116.5" y="-81.8" font-family="Times,serif" font-size="15.00" fill="#000000">24</text>
<polyline fill="none" stroke="#000000" points="132,-73.3 132,-99.3 "/>
<text text-anchor="middle" x="141.875" y="-81.8" font-family="Times,serif" font-size="15.00" fill="#000000"> </text>
</g>
<!-- node0&#45;&gt;node2 -->
<g id="edge2" class="edge">
<title>node0:f2&#45;&gt;node2:f1</title>
<path fill="none" stroke="#000000" d="M98.5,-136.3C98.5,-122.0132 109.4863,-118.6281 114.2928,-109.1108"/>
<polygon fill="#000000" stroke="#000000" points="117.7197,-109.8244 116.5,-99.3 110.8904,-108.2879 117.7197,-109.8244"/>
</g>
</g>
</svg>
