<?xml version="1.0" encoding="UTF-8" standalone="no"?>
<!DOCTYPE svg PUBLIC "-//W3C//DTD SVG 1.1//EN"
 "http://www.w3.org/Graphics/SVG/1.1/DTD/svg11.dtd">
<!-- Generated by graphviz version 2.40.1 (20161225.0304)
 -->
<!-- Title: G Pages: 1 -->
<svg width="360pt" height="189pt"
 viewBox="0.00 0.00 360.31 189.00" xmlns="http://www.w3.org/2000/svg" xmlns:xlink="http://www.w3.org/1999/xlink">
<g id="graph0" class="graph" transform="scale(1 1) rotate(0) translate(4 185)">
<title>G</title>
<polygon fill="#ffffff" stroke="transparent" points="-4,4 -4,-185 356.3134,-185 356.3134,4 -4,4"/>
<!-- struct1 -->
<g id="node1" class="node">
<title>struct1</title>
<polygon fill="none" stroke="#d3d3d3" points="0,-72.5 0,-108.5 328.6268,-108.5 328.6268,-72.5 0,-72.5"/>
<text text-anchor="middle" x="36.5116" y="-86.6" font-family="Times,serif" font-size="13.00" fill="#000000">drwxr&#45;xr&#45;x</text>
<polyline fill="none" stroke="#d3d3d3" points="73.0232,-72.5 73.0232,-108.5 "/>
<text text-anchor="middle" x="84.2732" y="-86.6" font-family="Times,serif" font-size="13.00" fill="#000000">2</text>
<polyline fill="none" stroke="#d3d3d3" points="95.5232,-72.5 95.5232,-108.5 "/>
<text text-anchor="middle" x="113.9934" y="-86.6" font-family="Times,serif" font-size="13.00" fill="#000000">root</text>
<polyline fill="none" stroke="#d3d3d3" points="132.4636,-72.5 132.4636,-108.5 "/>
<text text-anchor="middle" x="150.9338" y="-86.6" font-family="Times,serif" font-size="13.00" fill="#000000">root</text>
<polyline fill="none" stroke="#d3d3d3" points="169.404,-72.5 169.404,-108.5 "/>
<text text-anchor="middle" x="190.404" y="-86.6" font-family="Times,serif" font-size="13.00" fill="#000000">4096</text>
<polyline fill="none" stroke="#d3d3d3" points="211.404,-72.5 211.404,-108.5 "/>
<text text-anchor="middle" x="253.709" y="-86.6" font-family="Times,serif" font-size="13.00" fill="#000000">Feb 19 01:17</text>
<polyline fill="none" stroke="#d3d3d3" points="296.0141,-72.5 296.0141,-108.5 "/>
<text text-anchor="middle" x="312.3204" y="-86.6" font-family="Times,serif" font-size="13.00" fill="#000000">bin</text>
</g>
<!-- 1 -->
<g id="node2" class="node">
<title>1</title>
<ellipse fill="none" stroke="#d3d3d3" cx="36.3134" cy="-18" rx="27" ry="18"/>
<text text-anchor="middle" x="36.3134" y="-14.1" font-family="Times,serif" font-size="13.00" fill="#000000">1</text>
</g>
<!-- struct1&#45;&gt;1 -->
<g id="edge1" class="edge">
<title>struct1:f1&#45;&gt;1</title>
<path fill="none" stroke="#d3d3d3" d="M36.3134,-72.5C36.3134,-63.9844 36.3134,-54.7203 36.3134,-46.2865"/>
<polygon fill="#d3d3d3" stroke="#d3d3d3" points="39.8135,-46.1666 36.3134,-36.1667 32.8135,-46.1667 39.8135,-46.1666"/>
</g>
<!-- 5 -->
<g id="node6" class="node">
<title>5</title>
<ellipse fill="none" stroke="#d3d3d3" cx="181.3134" cy="-18" rx="27" ry="18"/>
<text text-anchor="middle" x="181.3134" y="-14.1" font-family="Times,serif" font-size="13.00" fill="#000000">5</text>
</g>
<!-- struct1&#45;&gt;5 -->
<g id="edge5" class="edge">
<title>struct1:f6&#45;&gt;5</title>
<path fill="none" stroke="#d3d3d3" d="M190.3134,-72.5C190.3134,-63.869 189.201,-54.5707 187.7584,-46.1411"/>
<polygon fill="#d3d3d3" stroke="#d3d3d3" points="191.1418,-45.2011 185.8134,-36.0436 184.2682,-46.5252 191.1418,-45.2011"/>
</g>
<!-- 6 -->
<g id="node7" class="node">
<title>6</title>
<ellipse fill="none" stroke="#d3d3d3" cx="253.3134" cy="-18" rx="27" ry="18"/>
<text text-anchor="middle" x="253.3134" y="-14.1" font-family="Times,serif" font-size="13.00" fill="#000000">6</text>
</g>
<!-- struct1&#45;&gt;6 -->
<g id="edge6" class="edge">
<title>struct1:f7&#45;&gt;6</title>
<path fill="none" stroke="#d3d3d3" d="M253.3134,-72.5C253.3134,-63.9844 253.3134,-54.7203 253.3134,-46.2865"/>
<polygon fill="#d3d3d3" stroke="#d3d3d3" points="256.8135,-46.1666 253.3134,-36.1667 249.8135,-46.1667 256.8135,-46.1666"/>
</g>
<!-- 7 -->
<g id="node8" class="node">
<title>7</title>
<ellipse fill="none" stroke="#d3d3d3" cx="325.3134" cy="-18" rx="27" ry="18"/>
<text text-anchor="middle" x="325.3134" y="-14.1" font-family="Times,serif" font-size="13.00" fill="#000000">7</text>
</g>
<!-- struct1&#45;&gt;7 -->
<g id="edge7" class="edge">
<title>struct1:f8&#45;&gt;7</title>
<path fill="none" stroke="#d3d3d3" d="M312.3134,-72.5C312.3134,-63.6482 313.9561,-54.203 316.0735,-45.7047"/>
<polygon fill="#d3d3d3" stroke="#d3d3d3" points="319.4895,-46.4851 318.8134,-35.9118 312.7484,-44.599 319.4895,-46.4851"/>
</g>
<!-- 2 -->
<g id="node3" class="node">
<title>2</title>
<ellipse fill="none" stroke="#d3d3d3" cx="42.3134" cy="-163" rx="27" ry="18"/>
<text text-anchor="middle" x="42.3134" y="-159.1" font-family="Times,serif" font-size="13.00" fill="#000000">2</text>
</g>
<!-- 2&#45;&gt;struct1 -->
<g id="edge2" class="edge">
<title>2&#45;&gt;struct1:f2</title>
<path fill="none" stroke="#d3d3d3" d="M60.8575,-149.4441C69.7354,-141.6244 79.207,-130.9163 82.8078,-118.648"/>
<polygon fill="#d3d3d3" stroke="#d3d3d3" points="86.3078,-118.9054 84.3134,-108.5 79.3836,-117.878 86.3078,-118.9054"/>
</g>
<!-- 3 -->
<g id="node4" class="node">
<title>3</title>
<ellipse fill="none" stroke="#d3d3d3" cx="114.3134" cy="-163" rx="27" ry="18"/>
<text text-anchor="middle" x="114.3134" y="-159.1" font-family="Times,serif" font-size="13.00" fill="#000000">3</text>
</g>
<!-- 3&#45;&gt;struct1 -->
<g id="edge3" class="edge">
<title>3&#45;&gt;struct1:f3</title>
<path fill="none" stroke="#d3d3d3" d="M114.3134,-144.8333C114.3134,-137.1338 114.3134,-127.8359 114.3134,-118.6816"/>
<polygon fill="#d3d3d3" stroke="#d3d3d3" points="117.8135,-118.5 114.3134,-108.5 110.8135,-118.5 117.8135,-118.5"/>
</g>
<!-- 4 -->
<g id="node5" class="node">
<title>4</title>
<ellipse fill="none" stroke="#d3d3d3" cx="186.3134" cy="-163" rx="27" ry="18"/>
<text text-anchor="middle" x="186.3134" y="-159.1" font-family="Times,serif" font-size="13.00" fill="#000000">4</text>
</g>
<!-- 4&#45;&gt;struct1 -->
<g id="edge4" class="edge">
<title>4&#45;&gt;struct1:f5</title>
<path fill="none" stroke="#d3d3d3" d="M170.4519,-148.3823C163.2894,-140.5213 155.7576,-130.1109 152.7125,-118.7215"/>
<polygon fill="#d3d3d3" stroke="#d3d3d3" points="156.1373,-117.933 151.3134,-108.5 149.2019,-118.8823 156.1373,-117.933"/>
</g>
</g>
</svg>
