<svg version="1.1" xmlns="http://www.w3.org/2000/svg" viewBox="0 0 383 306">
  <!-- svg-source:excalidraw -->
  <defs>
    <style>
      @font-face {
        font-family: "Virgil";
        src: url("https://excalidraw.com/FG_Virgil.woff2");
      }
      @font-face {
        font-family: "Cascadia";
        src: url("https://excalidraw.com/Cascadia.woff2");
      }
    </style>
  </defs>
  <rect x="0" y="0" width="383" height="306" fill="#ffffff"></rect><g><g transform="translate(34 293) rotate(0 0.5 -117)"><path d="M0 0 C0.16666666666666666 -39, 0.8333333333333334 -195, 1 -234 M0 0 C0.16666666666666666 -39, 0.8333333333333334 -195, 1 -234" stroke="#343a40" stroke-width="1" fill="none"></path></g><g transform="translate(34 293) rotate(0 0.5 -117)"><path d="M11.140038294329262 -205.76563045879126 C7.4539632075287585 -216.0293003914355, 3.767888120728256 -226.29297032407976, 1 -234 M11.140038294329262 -205.76563045879126 C8.99136896396513 -211.74848004322425, 6.842699633600995 -217.73132962765726, 1 -234" stroke="#343a40" stroke-width="1" fill="none"></path></g><g transform="translate(34 293) rotate(0 0.5 -117)"><path d="M-9.38098292001542 -205.85332713064744 C-5.607320394562254 -216.0851178427265, -1.8336578691090875 -226.31690855480556, 1 -234 M-9.38098292001542 -205.85332713064744 C-7.181257537149252 -211.81759383169057, -4.981532154283085 -217.78186053273367, 1 -234" stroke="#343a40" stroke-width="1" fill="none"></path></g></g><g><g transform="translate(11 284) rotate(0 135 -1.5)"><path d="M0 0 C45 -0.5, 225 -2.5, 270 -3 M0 0 C45 -0.5, 225 -2.5, 270 -3" stroke="#343a40" stroke-width="1" fill="none"></path></g><g transform="translate(11 284) rotate(0 135 -1.5)"><path d="M241.92496106447425 7.573182527919975 C250.61595306747256 4.300116905200003, 259.3069450704709 1.0270512824800315, 270 -3 M241.92496106447425 7.573182527919975 C252.4948260758091 3.5925251077479774, 263.06469108714396 -0.3881323124240206, 270 -3" stroke="#343a40" stroke-width="1" fill="none"></path></g><g transform="translate(11 284) rotate(0 135 -1.5)"><path d="M241.69696170919036 -12.946759447627361 C250.45853386625407 -9.867611204463634, 259.2201060233178 -6.7884629612999055, 270 -3 M241.69696170919036 -12.946759447627361 C252.35266533373448 -9.20194167896513, 263.00836895827865 -5.457123910302897, 270 -3" stroke="#343a40" stroke-width="1" fill="none"></path></g></g><g transform="translate(10 10) rotate(0 34.5 22)"><text x="0" y="32" font-family="Virgil" font-size="28px" fill="#c92a2a" text-anchor="start" style="white-space: pre;" direction="ltr">yAxis</text></g><g transform="translate(302 252) rotate(0 35.5 22)"><text x="0" y="32" font-family="Virgil" font-size="28px" fill="#c92a2a" text-anchor="start" style="white-space: pre;" direction="ltr">xAxis</text></g><g><g transform="translate(34 284) rotate(0 112.5 -49.5)"><path d="M0 0 C1.6666666666666667 -4.5, 5.166666666666667 -13.833333333333334, 10 -27 C14.833333333333332 -40.166666666666664, 19.333333333333336 -76.16666666666667, 29 -79 C38.666666666666664 -81.83333333333333, 54.5 -47.5, 68 -44 C81.5 -40.5, 98.5 -48.833333333333336, 110 -58 C121.5 -67.16666666666667, 125.5 -101, 137 -99 C148.5 -97, 164.33333333333334 -62.33333333333333, 179 -46 C193.66666666666666 -29.666666666666668, 217.33333333333334 -8.5, 225 -1 M0 0 C1.6666666666666667 -4.5, 5.166666666666667 -13.833333333333334, 10 -27 C14.833333333333332 -40.166666666666664, 19.333333333333336 -76.16666666666667, 29 -79 C38.666666666666664 -81.83333333333333, 54.5 -47.5, 68 -44 C81.5 -40.5, 98.5 -48.833333333333336, 110 -58 C121.5 -67.16666666666667, 125.5 -101, 137 -99 C148.5 -97, 164.33333333333334 -62.33333333333333, 179 -46 C193.66666666666666 -29.666666666666668, 217.33333333333334 -8.5, 225 -1" stroke="#c92a2a" stroke-width="1" fill="none"></path></g><g transform="translate(34 284) rotate(0 112.5 -49.5)"><path d="M197.44863194934396 -12.871062232896035 C204.35161544960548 -9.896772659558222, 211.25459894986696 -6.922483086220407, 225 -1 M197.44863194934396 -12.871062232896035 C206.8686742145468 -8.812247158409345, 216.2887164797496 -4.753432083922657, 225 -1" stroke="#c92a2a" stroke-width="1" fill="none"></path></g><g transform="translate(34 284) rotate(0 112.5 -49.5)"><path d="M211.5249993215926 -27.80343927030485 C214.9011549875485 -21.08784900658399, 218.2773106535044 -14.37225874286313, 225 -1 M211.5249993215926 -27.80343927030485 C216.13221431290813 -18.639120086050887, 220.73942930422368 -9.474800901796925, 225 -1" stroke="#c92a2a" stroke-width="1" fill="none"></path></g></g><g transform="translate(149 135.5) rotate(0 49 16)"><text x="0" y="23" font-family="Virgil" font-size="20px" fill="#c92a2a" text-anchor="start" style="white-space: pre;" direction="ltr">your data</text></g></svg>