<?xml version="1.0" encoding="UTF-8" standalone="no"?>
<!DOCTYPE svg PUBLIC "-//W3C//DTD SVG 1.1//EN"
 "http://www.w3.org/Graphics/SVG/1.1/DTD/svg11.dtd">
<!-- Generated by graphviz version 2.40.1 (20161225.0304)
 -->
<!-- Title: G Pages: 1 -->
<svg width="408pt" height="548pt"
 viewBox="0.00 0.00 408.45 548.00" xmlns="http://www.w3.org/2000/svg" xmlns:xlink="http://www.w3.org/1999/xlink">
<g id="graph0" class="graph" transform="scale(1 1) rotate(0) translate(4 544)">
<title>G</title>
<polygon fill="#ffffff" stroke="transparent" points="-4,4 -4,-544 404.4485,-544 404.4485,4 -4,4"/>
<!-- Dockerfile ile herhangi bir image yaratilacak -->
<g id="node1" class="node">
<title>Dockerfile ile herhangi bir image yaratilacak</title>
<polygon fill="none" stroke="#000000" points="343.1846,-540 57.2639,-540 57.2639,-504 343.1846,-504 343.1846,-540"/>
<text text-anchor="middle" x="200.2242" y="-517.5" font-family="Times,serif" font-size="15.00" fill="#000000">Dockerfile ile herhangi bir image yaratilacak</text>
</g>
<!-- docker build &#45;t enesusta/ubuntu:0.2 . -->
<g id="node2" class="node">
<title>docker build &#45;t enesusta/ubuntu:0.2 .</title>
<polygon fill="none" stroke="#000000" points="317.8503,-468 82.5982,-468 82.5982,-432 317.8503,-432 317.8503,-468"/>
<text text-anchor="middle" x="200.2242" y="-445.5" font-family="Times,serif" font-size="15.00" fill="#000000">docker build &#45;t enesusta/ubuntu:0.2 .</text>
</g>
<!-- Dockerfile ile herhangi bir image yaratilacak&#45;&gt;docker build &#45;t enesusta/ubuntu:0.2 . -->
<g id="edge1" class="edge">
<title>Dockerfile ile herhangi bir image yaratilacak&#45;&gt;docker build &#45;t enesusta/ubuntu:0.2 .</title>
<path fill="none" stroke="#000000" d="M200.2242,-503.8314C200.2242,-496.131 200.2242,-486.9743 200.2242,-478.4166"/>
<polygon fill="#000000" stroke="#000000" points="203.7243,-478.4132 200.2242,-468.4133 196.7243,-478.4133 203.7243,-478.4132"/>
</g>
<!--  &#45;t parametresi tag demek  -->
<g id="node3" class="node">
<title> &#45;t parametresi tag demek </title>
<polygon fill="none" stroke="#000000" points="286.4088,-396 114.0397,-396 114.0397,-360 286.4088,-360 286.4088,-396"/>
<text text-anchor="middle" x="200.2242" y="-373.5" font-family="Times,serif" font-size="15.00" fill="#000000"> &#45;t parametresi tag demek </text>
</g>
<!-- docker build &#45;t enesusta/ubuntu:0.2 .&#45;&gt; &#45;t parametresi tag demek  -->
<g id="edge2" class="edge">
<title>docker build &#45;t enesusta/ubuntu:0.2 .&#45;&gt; &#45;t parametresi tag demek </title>
<path fill="none" stroke="#000000" d="M200.2242,-431.8314C200.2242,-424.131 200.2242,-414.9743 200.2242,-406.4166"/>
<polygon fill="#000000" stroke="#000000" points="203.7243,-406.4132 200.2242,-396.4133 196.7243,-406.4133 203.7243,-406.4132"/>
</g>
<!-- docker run &#45;t &#45;i enesusta/ubuntu:0.2 bash -->
<g id="node4" class="node">
<title>docker run &#45;t &#45;i enesusta/ubuntu:0.2 bash</title>
<polygon fill="none" stroke="#000000" points="330.6608,-324 69.7877,-324 69.7877,-288 330.6608,-288 330.6608,-324"/>
<text text-anchor="middle" x="200.2242" y="-301.5" font-family="Times,serif" font-size="15.00" fill="#000000">docker run &#45;t &#45;i enesusta/ubuntu:0.2 bash</text>
</g>
<!--  &#45;t parametresi tag demek &#45;&gt;docker run &#45;t &#45;i enesusta/ubuntu:0.2 bash -->
<g id="edge3" class="edge">
<title> &#45;t parametresi tag demek &#45;&gt;docker run &#45;t &#45;i enesusta/ubuntu:0.2 bash</title>
<path fill="none" stroke="#000000" d="M200.2242,-359.8314C200.2242,-352.131 200.2242,-342.9743 200.2242,-334.4166"/>
<polygon fill="#000000" stroke="#000000" points="203.7243,-334.4132 200.2242,-324.4133 196.7243,-334.4133 203.7243,-334.4132"/>
</g>
<!-- Diyelim ki kapattin container&#39;i, yeniden calistirmak icin -->
<g id="node5" class="node">
<title>Diyelim ki kapattin container&#39;i, yeniden calistirmak icin</title>
<polygon fill="none" stroke="#000000" points="376.7203,-252 23.7282,-252 23.7282,-216 376.7203,-216 376.7203,-252"/>
<text text-anchor="middle" x="200.2242" y="-229.5" font-family="Times,serif" font-size="15.00" fill="#000000">Diyelim ki kapattin container&#39;i, yeniden calistirmak icin</text>
</g>
<!-- docker run &#45;t &#45;i enesusta/ubuntu:0.2 bash&#45;&gt;Diyelim ki kapattin container&#39;i, yeniden calistirmak icin -->
<g id="edge4" class="edge">
<title>docker run &#45;t &#45;i enesusta/ubuntu:0.2 bash&#45;&gt;Diyelim ki kapattin container&#39;i, yeniden calistirmak icin</title>
<path fill="none" stroke="#000000" d="M200.2242,-287.8314C200.2242,-280.131 200.2242,-270.9743 200.2242,-262.4166"/>
<polygon fill="#000000" stroke="#000000" points="203.7243,-262.4132 200.2242,-252.4133 196.7243,-262.4133 203.7243,-262.4132"/>
</g>
<!-- docker ps &#45;a ile containerId&#39;yi alirsin, bu ornekte e46247de01c7 -->
<g id="node6" class="node">
<title>docker ps &#45;a ile containerId&#39;yi alirsin, bu ornekte e46247de01c7</title>
<polygon fill="none" stroke="#000000" points="400.673,-180 -.2245,-180 -.2245,-144 400.673,-144 400.673,-180"/>
<text text-anchor="middle" x="200.2242" y="-157.5" font-family="Times,serif" font-size="15.00" fill="#000000">docker ps &#45;a ile containerId&#39;yi alirsin, bu ornekte e46247de01c7</text>
</g>
<!-- Diyelim ki kapattin container&#39;i, yeniden calistirmak icin&#45;&gt;docker ps &#45;a ile containerId&#39;yi alirsin, bu ornekte e46247de01c7 -->
<g id="edge5" class="edge">
<title>Diyelim ki kapattin container&#39;i, yeniden calistirmak icin&#45;&gt;docker ps &#45;a ile containerId&#39;yi alirsin, bu ornekte e46247de01c7</title>
<path fill="none" stroke="#000000" d="M200.2242,-215.8314C200.2242,-208.131 200.2242,-198.9743 200.2242,-190.4166"/>
<polygon fill="#000000" stroke="#000000" points="203.7243,-190.4132 200.2242,-180.4133 196.7243,-190.4133 203.7243,-190.4132"/>
</g>
<!-- docker exec &#45;it e46 bash -->
<g id="node7" class="node">
<title>docker exec &#45;it e46 bash</title>
<polygon fill="none" stroke="#000000" points="280.9914,-108 119.4571,-108 119.4571,-72 280.9914,-72 280.9914,-108"/>
<text text-anchor="middle" x="200.2242" y="-85.5" font-family="Times,serif" font-size="15.00" fill="#000000">docker exec &#45;it e46 bash</text>
</g>
<!-- docker ps &#45;a ile containerId&#39;yi alirsin, bu ornekte e46247de01c7&#45;&gt;docker exec &#45;it e46 bash -->
<g id="edge6" class="edge">
<title>docker ps &#45;a ile containerId&#39;yi alirsin, bu ornekte e46247de01c7&#45;&gt;docker exec &#45;it e46 bash</title>
<path fill="none" stroke="#000000" d="M200.2242,-143.8314C200.2242,-136.131 200.2242,-126.9743 200.2242,-118.4166"/>
<polygon fill="#000000" stroke="#000000" points="203.7243,-118.4132 200.2242,-108.4133 196.7243,-118.4133 203.7243,-118.4132"/>
</g>
<!-- boylece interactive bash&#39;in daima hazir -->
<g id="node8" class="node">
<title>boylece interactive bash&#39;in daima hazir</title>
<polygon fill="none" stroke="#000000" points="325.9569,-36 74.4916,-36 74.4916,0 325.9569,0 325.9569,-36"/>
<text text-anchor="middle" x="200.2242" y="-13.5" font-family="Times,serif" font-size="15.00" fill="#000000">boylece interactive bash&#39;in daima hazir</text>
</g>
<!-- docker exec &#45;it e46 bash&#45;&gt;boylece interactive bash&#39;in daima hazir -->
<g id="edge7" class="edge">
<title>docker exec &#45;it e46 bash&#45;&gt;boylece interactive bash&#39;in daima hazir</title>
<path fill="none" stroke="#000000" d="M200.2242,-71.8314C200.2242,-64.131 200.2242,-54.9743 200.2242,-46.4166"/>
<polygon fill="#000000" stroke="#000000" points="203.7243,-46.4132 200.2242,-36.4133 196.7243,-46.4133 203.7243,-46.4132"/>
</g>
</g>
</svg>
