<?xml version="1.0" encoding="UTF-8" standalone="no"?>
<!DOCTYPE svg PUBLIC "-//W3C//DTD SVG 1.1//EN"
 "http://www.w3.org/Graphics/SVG/1.1/DTD/svg11.dtd">
<!-- Generated by graphviz version 2.40.1 (20161225.0304)
 -->
<!-- Title: G Pages: 1 -->
<svg width="422pt" height="283pt"
 viewBox="0.00 0.00 422.22 282.57" xmlns="http://www.w3.org/2000/svg" xmlns:xlink="http://www.w3.org/1999/xlink">
<g id="graph0" class="graph" transform="scale(1 1) rotate(0) translate(4 278.5696)">
<title>G</title>
<polygon fill="#ffffff" stroke="transparent" points="-4,4 -4,-278.5696 418.2238,-278.5696 418.2238,4 -4,4"/>
<!-- n2 -->
<g id="node1" class="node">
<title>n2</title>
<polygon fill="none" stroke="#000000" points="0,-238.0696 0,-274.0696 140.4795,-274.0696 140.4795,-238.0696 0,-238.0696"/>
<text text-anchor="middle" x="21.326" y="-251.5696" font-family="Times,serif" font-size="15.00" fill="#000000">prev</text>
<polyline fill="none" stroke="#000000" points="42.652,-238.0696 42.652,-274.0696 "/>
<text text-anchor="middle" x="70.6523" y="-251.5696" font-family="Times,serif" font-size="15.00" fill="#000000">Empl2</text>
<polyline fill="none" stroke="#000000" points="98.6525,-238.0696 98.6525,-274.0696 "/>
<text text-anchor="middle" x="119.566" y="-251.5696" font-family="Times,serif" font-size="15.00" fill="#000000">next</text>
</g>
<!-- n3 -->
<g id="node2" class="node">
<title>n3</title>
<polygon fill="none" stroke="#000000" points="49,-148.2696 49,-184.2696 189.4795,-184.2696 189.4795,-148.2696 49,-148.2696"/>
<text text-anchor="middle" x="70.326" y="-161.7696" font-family="Times,serif" font-size="15.00" fill="#000000">prev</text>
<polyline fill="none" stroke="#000000" points="91.652,-148.2696 91.652,-184.2696 "/>
<text text-anchor="middle" x="119.6523" y="-161.7696" font-family="Times,serif" font-size="15.00" fill="#000000">Empl3</text>
<polyline fill="none" stroke="#000000" points="147.6525,-148.2696 147.6525,-184.2696 "/>
<text text-anchor="middle" x="168.566" y="-161.7696" font-family="Times,serif" font-size="15.00" fill="#000000">next</text>
</g>
<!-- n2&#45;&gt;n3 -->
<g id="edge1" class="edge">
<title>n2:f3&#45;&gt;n3:f2</title>
<path fill="none" stroke="#000000" d="M119.2398,-238.0696C119.2398,-217.8946 119.2398,-210.4865 119.2398,-194.3012"/>
<polygon fill="#000000" stroke="#000000" points="122.7398,-194.2695 119.2398,-184.2696 115.7398,-194.2696 122.7398,-194.2695"/>
<text text-anchor="middle" x="182.421" y="-206.9696" font-family="Times,serif" font-size="14.00" fill="#000000"> &#160;&#160;&#160;&#160;HEAD artik Empl2</text>
</g>
<!-- NULL -->
<g id="node5" class="node">
<title>NULL</title>
<ellipse fill="none" stroke="#000000" cx="246.2398" cy="-18.3848" rx="39.6735" ry="18.2703"/>
<text text-anchor="middle" x="246.2398" y="-13.8848" font-family="Times,serif" font-size="15.00" fill="#000000">NULL</text>
</g>
<!-- n2&#45;&gt;NULL -->
<g id="edge3" class="edge">
<title>n2:f1&#45;&gt;NULL</title>
<path fill="none" stroke="#000000" d="M21.2398,-238.0696C21.2398,-159.0403 26.93,-122.3815 89.2398,-73.7696 121.2504,-48.796 165.4015,-34.5535 198.7322,-26.7848"/>
<polygon fill="#000000" stroke="#000000" points="199.6966,-30.1561 208.7034,-24.5769 198.1832,-23.3216 199.6966,-30.1561"/>
</g>
<!-- n3&#45;&gt;n2 -->
<g id="edge4" class="edge">
<title>n3:f1&#45;&gt;n2:f2</title>
<path fill="none" stroke="#000000" d="M70.2398,-184.2696C70.2398,-204.4446 70.2398,-211.8526 70.2398,-228.0379"/>
<polygon fill="#000000" stroke="#000000" points="66.7398,-228.0695 70.2398,-238.0696 73.7398,-228.0696 66.7398,-228.0695"/>
</g>
<!-- n4 -->
<g id="node3" class="node">
<title>n4</title>
<polygon fill="none" stroke="#000000" points="98,-74.2696 98,-110.2696 238.4795,-110.2696 238.4795,-74.2696 98,-74.2696"/>
<text text-anchor="middle" x="119.326" y="-87.7696" font-family="Times,serif" font-size="15.00" fill="#000000">prev</text>
<polyline fill="none" stroke="#000000" points="140.652,-74.2696 140.652,-110.2696 "/>
<text text-anchor="middle" x="168.6523" y="-87.7696" font-family="Times,serif" font-size="15.00" fill="#000000">Empl4</text>
<polyline fill="none" stroke="#000000" points="196.6525,-74.2696 196.6525,-110.2696 "/>
<text text-anchor="middle" x="217.566" y="-87.7696" font-family="Times,serif" font-size="15.00" fill="#000000">next</text>
</g>
<!-- n3&#45;&gt;n4 -->
<g id="edge2" class="edge">
<title>n3:f3&#45;&gt;n4:f2</title>
<path fill="none" stroke="#000000" d="M168.2398,-148.2696C168.2398,-135.339 168.2398,-129.8334 168.2398,-120.3833"/>
<polygon fill="#000000" stroke="#000000" points="171.7398,-120.2695 168.2398,-110.2696 164.7398,-120.2696 171.7398,-120.2695"/>
</g>
<!-- n4&#45;&gt;n3 -->
<g id="edge5" class="edge">
<title>n4:f1&#45;&gt;n3:f2</title>
<path fill="none" stroke="#000000" d="M119.2398,-110.2696C119.2398,-123.2001 119.2398,-128.7057 119.2398,-138.1558"/>
<polygon fill="#000000" stroke="#000000" points="115.7398,-138.2695 119.2398,-148.2696 122.7398,-138.2696 115.7398,-138.2695"/>
</g>
<!-- n4&#45;&gt;NULL -->
<g id="edge6" class="edge">
<title>n4:f3&#45;&gt;NULL</title>
<path fill="none" stroke="#000000" d="M217.2398,-74.2696C217.2398,-63.8853 221.2334,-53.5122 226.2566,-44.572"/>
<polygon fill="#000000" stroke="#000000" points="229.3893,-46.1645 231.7398,-35.8336 223.4599,-42.4439 229.3893,-46.1645"/>
</g>
<!-- n5 -->
<g id="node4" class="node">
<title>n5</title>
<polygon fill="none" stroke="#000000" points="256.2558,-74.2696 256.2558,-110.2696 414.2238,-110.2696 414.2238,-74.2696 256.2558,-74.2696"/>
<text text-anchor="middle" x="277.5818" y="-87.7696" font-family="Times,serif" font-size="15.00" fill="#000000">prev</text>
<polyline fill="none" stroke="#000000" points="298.9078,-74.2696 298.9078,-110.2696 "/>
<text text-anchor="middle" x="335.6523" y="-87.7696" font-family="Times,serif" font-size="15.00" fill="#000000">Removed</text>
<polyline fill="none" stroke="#000000" points="372.3968,-74.2696 372.3968,-110.2696 "/>
<text text-anchor="middle" x="393.3103" y="-87.7696" font-family="Times,serif" font-size="15.00" fill="#000000">next</text>
</g>
<!-- n5&#45;&gt;NULL -->
<g id="edge7" class="edge">
<title>n5:f1&#45;&gt;NULL</title>
<path fill="none" stroke="#000000" d="M277.2398,-74.2696C277.2398,-63.6184 272.8804,-53.0968 267.4312,-44.1054"/>
<polygon fill="#000000" stroke="#000000" points="270.2363,-42.0053 261.7398,-35.676 264.4348,-45.9223 270.2363,-42.0053"/>
</g>
<!-- n5&#45;&gt;NULL -->
<g id="edge8" class="edge">
<title>n5:f3&#45;&gt;NULL</title>
<path fill="none" stroke="#000000" d="M393.2398,-74.2696C393.2398,-52.5318 336.3661,-36.2146 293.3707,-26.985"/>
<polygon fill="#000000" stroke="#000000" points="293.8366,-23.5072 283.3341,-24.9027 292.4145,-30.3612 293.8366,-23.5072"/>
</g>
</g>
</svg>
