<?xml version="1.0" encoding="UTF-8" standalone="no"?>
<!DOCTYPE svg PUBLIC "-//W3C//DTD SVG 1.1//EN"
 "http://www.w3.org/Graphics/SVG/1.1/DTD/svg11.dtd">
<!-- Generated by graphviz version 2.40.1 (20161225.0304)
 -->
<!-- Title: G Pages: 1 -->
<svg width="421pt" height="337pt"
 viewBox="0.00 0.00 421.48 336.77" xmlns="http://www.w3.org/2000/svg" xmlns:xlink="http://www.w3.org/1999/xlink">
<g id="graph0" class="graph" transform="scale(1 1) rotate(0) translate(4 332.7696)">
<title>G</title>
<polygon fill="#ffffff" stroke="transparent" points="-4,4 -4,-332.7696 417.4795,-332.7696 417.4795,4 -4,4"/>
<!-- n1 -->
<g id="node1" class="node">
<title>n1</title>
<polygon fill="none" stroke="#000000" points="0,-292.2696 0,-328.2696 140.4795,-328.2696 140.4795,-292.2696 0,-292.2696"/>
<text text-anchor="middle" x="21.326" y="-305.7696" font-family="Times,serif" font-size="15.00" fill="#000000">prev</text>
<polyline fill="none" stroke="#000000" points="42.652,-292.2696 42.652,-328.2696 "/>
<text text-anchor="middle" x="70.6523" y="-305.7696" font-family="Times,serif" font-size="15.00" fill="#000000">Empl1</text>
<polyline fill="none" stroke="#000000" points="98.6525,-292.2696 98.6525,-328.2696 "/>
<text text-anchor="middle" x="119.566" y="-305.7696" font-family="Times,serif" font-size="15.00" fill="#000000">next</text>
</g>
<!-- n2 -->
<g id="node2" class="node">
<title>n2</title>
<polygon fill="none" stroke="#000000" points="175,-219.2696 175,-255.2696 315.4795,-255.2696 315.4795,-219.2696 175,-219.2696"/>
<text text-anchor="middle" x="196.326" y="-232.7696" font-family="Times,serif" font-size="15.00" fill="#000000">prev</text>
<polyline fill="none" stroke="#000000" points="217.652,-219.2696 217.652,-255.2696 "/>
<text text-anchor="middle" x="245.6523" y="-232.7696" font-family="Times,serif" font-size="15.00" fill="#000000">Empl2</text>
<polyline fill="none" stroke="#000000" points="273.6525,-219.2696 273.6525,-255.2696 "/>
<text text-anchor="middle" x="294.566" y="-232.7696" font-family="Times,serif" font-size="15.00" fill="#000000">next</text>
</g>
<!-- n1&#45;&gt;n2 -->
<g id="edge1" class="edge">
<title>n1:f3&#45;&gt;n2:f2</title>
<path fill="none" stroke="#000000" d="M140.2398,-310.2696C149.3833,-310.2696 142.4917,-297.9395 149.2398,-291.7696 180.0325,-263.615 234.7412,-294.5725 243.9169,-265.2406"/>
<polygon fill="#000000" stroke="#000000" points="247.3941,-265.643 245.2398,-255.2696 240.4549,-264.7224 247.3941,-265.643"/>
</g>
<!-- NULL -->
<g id="node6" class="node">
<title>NULL</title>
<ellipse fill="none" stroke="#000000" cx="169.2398" cy="-18.3848" rx="39.6735" ry="18.2703"/>
<text text-anchor="middle" x="169.2398" y="-13.8848" font-family="Times,serif" font-size="15.00" fill="#000000">NULL</text>
</g>
<!-- n1&#45;&gt;NULL -->
<g id="edge7" class="edge">
<title>n1:f1&#45;&gt;NULL</title>
<path fill="none" stroke="#000000" d="M21.2398,-292.2696C21.2398,-189.277 103.2445,-87.8578 145.1703,-42.7363"/>
<polygon fill="#000000" stroke="#000000" points="147.939,-44.9022 152.2623,-35.2296 142.8507,-40.095 147.939,-44.9022"/>
</g>
<!-- n3 -->
<g id="node3" class="node">
<title>n3</title>
<polygon fill="none" stroke="#000000" points="224,-146.2696 224,-182.2696 364.4795,-182.2696 364.4795,-146.2696 224,-146.2696"/>
<text text-anchor="middle" x="245.326" y="-159.7696" font-family="Times,serif" font-size="15.00" fill="#000000">prev</text>
<polyline fill="none" stroke="#000000" points="266.652,-146.2696 266.652,-182.2696 "/>
<text text-anchor="middle" x="294.6523" y="-159.7696" font-family="Times,serif" font-size="15.00" fill="#000000">Empl3</text>
<polyline fill="none" stroke="#000000" points="322.6525,-146.2696 322.6525,-182.2696 "/>
<text text-anchor="middle" x="343.566" y="-159.7696" font-family="Times,serif" font-size="15.00" fill="#000000">next</text>
</g>
<!-- n2&#45;&gt;n3 -->
<g id="edge2" class="edge">
<title>n2:f3&#45;&gt;n3:f2</title>
<path fill="none" stroke="#000000" d="M294.2398,-219.2696C294.2398,-206.8077 294.2398,-201.4287 294.2398,-192.3976"/>
<polygon fill="#000000" stroke="#000000" points="297.7398,-192.2695 294.2398,-182.2696 290.7398,-192.2696 297.7398,-192.2695"/>
</g>
<!-- n2&#45;&gt;NULL -->
<g id="edge4" class="edge">
<title>n2:f1&#45;&gt;NULL</title>
<path fill="none" stroke="#000000" d="M196.2398,-219.2696C196.2398,-157.3513 183.4843,-85.6468 175.5078,-46.8606"/>
<polygon fill="#000000" stroke="#000000" points="178.8815,-45.8955 173.3993,-36.8293 172.0312,-47.3354 178.8815,-45.8955"/>
</g>
<!-- n3&#45;&gt;n2 -->
<g id="edge5" class="edge">
<title>n3:f1&#45;&gt;n2:f2</title>
<path fill="none" stroke="#000000" d="M245.2398,-182.2696C245.2398,-194.7314 245.2398,-200.1104 245.2398,-209.1415"/>
<polygon fill="#000000" stroke="#000000" points="241.7398,-209.2695 245.2398,-219.2696 248.7398,-209.2696 241.7398,-209.2695"/>
</g>
<!-- n4 -->
<g id="node4" class="node">
<title>n4</title>
<polygon fill="none" stroke="#000000" points="273,-73.2696 273,-109.2696 413.4795,-109.2696 413.4795,-73.2696 273,-73.2696"/>
<text text-anchor="middle" x="294.326" y="-86.7696" font-family="Times,serif" font-size="15.00" fill="#000000">prev</text>
<polyline fill="none" stroke="#000000" points="315.652,-73.2696 315.652,-109.2696 "/>
<text text-anchor="middle" x="343.6523" y="-86.7696" font-family="Times,serif" font-size="15.00" fill="#000000">Empl4</text>
<polyline fill="none" stroke="#000000" points="371.6525,-73.2696 371.6525,-109.2696 "/>
<text text-anchor="middle" x="392.566" y="-86.7696" font-family="Times,serif" font-size="15.00" fill="#000000">next</text>
</g>
<!-- n3&#45;&gt;n4 -->
<g id="edge3" class="edge">
<title>n3:f3&#45;&gt;n4:f2</title>
<path fill="none" stroke="#000000" d="M343.2398,-146.2696C343.2398,-133.8077 343.2398,-128.4287 343.2398,-119.3976"/>
<polygon fill="#000000" stroke="#000000" points="346.7398,-119.2695 343.2398,-109.2696 339.7398,-119.2696 346.7398,-119.2695"/>
</g>
<!-- n4&#45;&gt;n3 -->
<g id="edge6" class="edge">
<title>n4:f1&#45;&gt;n3:f2</title>
<path fill="none" stroke="#000000" d="M294.2398,-109.2696C294.2398,-121.7314 294.2398,-127.1104 294.2398,-136.1415"/>
<polygon fill="#000000" stroke="#000000" points="290.7398,-136.2695 294.2398,-146.2696 297.7398,-136.2696 290.7398,-136.2695"/>
</g>
<!-- n4&#45;&gt;NULL -->
<g id="edge8" class="edge">
<title>n4:f3&#45;&gt;NULL</title>
<path fill="none" stroke="#000000" d="M392.2398,-73.2696C392.2398,-37.8363 284.7415,-25.1483 219.0175,-20.7022"/>
<polygon fill="#000000" stroke="#000000" points="219.0523,-17.1975 208.8507,-20.0572 218.609,-24.1834 219.0523,-17.1975"/>
</g>
<!-- n5 -->
<g id="node5" class="node">
<title>n5</title>
<polygon fill="none" stroke="#000000" points="158.2558,-292.2696 158.2558,-328.2696 316.2238,-328.2696 316.2238,-292.2696 158.2558,-292.2696"/>
<text text-anchor="middle" x="179.5818" y="-305.7696" font-family="Times,serif" font-size="15.00" fill="#000000">prev</text>
<polyline fill="none" stroke="#000000" points="200.9078,-292.2696 200.9078,-328.2696 "/>
<text text-anchor="middle" x="237.6523" y="-305.7696" font-family="Times,serif" font-size="15.00" fill="#000000">Removed</text>
<polyline fill="none" stroke="#000000" points="274.3968,-292.2696 274.3968,-328.2696 "/>
<text text-anchor="middle" x="295.3103" y="-305.7696" font-family="Times,serif" font-size="15.00" fill="#000000">next</text>
</g>
<!-- n5&#45;&gt;n2 -->
<g id="edge9" class="edge">
<title>n5:f3&#45;&gt;n2:f2</title>
<path fill="none" stroke="#000000" d="M295.2398,-292.2696C295.2398,-268.7281 258.9818,-278.4968 248.2177,-264.8443"/>
<polygon fill="#000000" stroke="#000000" points="251.5518,-263.7789 245.2398,-255.2696 244.8676,-265.8579 251.5518,-263.7789"/>
</g>
<!-- n5&#45;&gt;NULL -->
<g id="edge10" class="edge">
<title>n5:f1&#45;&gt;NULL</title>
<path fill="none" stroke="#000000" d="M179.2398,-292.2696C179.2398,-275.0491 169.1714,-272.7386 166.2398,-255.7696 153.4048,-181.4788 160.4432,-92.1577 165.5078,-47.214"/>
<polygon fill="#000000" stroke="#000000" points="169.0129,-47.3764 166.7081,-37.0353 162.061,-46.5565 169.0129,-47.3764"/>
</g>
</g>
</svg>
