<?xml version="1.0" encoding="UTF-8" standalone="no"?>
<!DOCTYPE svg PUBLIC "-//W3C//DTD SVG 1.1//EN"
 "http://www.w3.org/Graphics/SVG/1.1/DTD/svg11.dtd">
<!-- Generated by graphviz version 2.40.1 (20161225.0304)
 -->
<!-- Title: G Pages: 1 -->
<svg width="343pt" height="337pt"
 viewBox="0.00 0.00 343.22 336.77" xmlns="http://www.w3.org/2000/svg" xmlns:xlink="http://www.w3.org/1999/xlink">
<g id="graph0" class="graph" transform="scale(1 1) rotate(0) translate(4 332.7696)">
<title>G</title>
<polygon fill="#ffffff" stroke="transparent" points="-4,4 -4,-332.7696 339.2238,-332.7696 339.2238,4 -4,4"/>
<!-- n1 -->
<g id="node1" class="node">
<title>n1</title>
<polygon fill="none" stroke="#000000" points="0,-292.2696 0,-328.2696 140.4795,-328.2696 140.4795,-292.2696 0,-292.2696"/>
<text text-anchor="middle" x="21.326" y="-305.7696" font-family="Times,serif" font-size="15.00" fill="#000000">prev</text>
<polyline fill="none" stroke="#000000" points="42.652,-292.2696 42.652,-328.2696 "/>
<text text-anchor="middle" x="70.6523" y="-305.7696" font-family="Times,serif" font-size="15.00" fill="#000000">Empl1</text>
<polyline fill="none" stroke="#000000" points="98.6525,-292.2696 98.6525,-328.2696 "/>
<text text-anchor="middle" x="119.566" y="-305.7696" font-family="Times,serif" font-size="15.00" fill="#000000">next</text>
</g>
<!-- n2 -->
<g id="node2" class="node">
<title>n2</title>
<polygon fill="none" stroke="#000000" points="49,-219.2696 49,-255.2696 189.4795,-255.2696 189.4795,-219.2696 49,-219.2696"/>
<text text-anchor="middle" x="70.326" y="-232.7696" font-family="Times,serif" font-size="15.00" fill="#000000">prev</text>
<polyline fill="none" stroke="#000000" points="91.652,-219.2696 91.652,-255.2696 "/>
<text text-anchor="middle" x="119.6523" y="-232.7696" font-family="Times,serif" font-size="15.00" fill="#000000">Empl2</text>
<polyline fill="none" stroke="#000000" points="147.6525,-219.2696 147.6525,-255.2696 "/>
<text text-anchor="middle" x="168.566" y="-232.7696" font-family="Times,serif" font-size="15.00" fill="#000000">next</text>
</g>
<!-- n1&#45;&gt;n2 -->
<g id="edge1" class="edge">
<title>n1:f3&#45;&gt;n2:f2</title>
<path fill="none" stroke="#000000" d="M119.2398,-292.2696C119.2398,-279.8077 119.2398,-274.4287 119.2398,-265.3976"/>
<polygon fill="#000000" stroke="#000000" points="122.7398,-265.2695 119.2398,-255.2696 115.7398,-265.2696 122.7398,-265.2695"/>
</g>
<!-- NULL -->
<g id="node6" class="node">
<title>NULL</title>
<ellipse fill="none" stroke="#000000" cx="192.2398" cy="-18.3848" rx="39.6735" ry="18.2703"/>
<text text-anchor="middle" x="192.2398" y="-13.8848" font-family="Times,serif" font-size="15.00" fill="#000000">NULL</text>
</g>
<!-- n1&#45;&gt;NULL -->
<g id="edge7" class="edge">
<title>n1:f1&#45;&gt;NULL</title>
<path fill="none" stroke="#000000" d="M21.2398,-292.2696C21.2398,-192.8597 1.6359,-149.9905 64.2398,-72.7696 84.2146,-48.1309 117.3949,-34.4581 144.9679,-26.9848"/>
<polygon fill="#000000" stroke="#000000" points="145.9931,-30.3361 154.8378,-24.5032 144.2862,-23.5474 145.9931,-30.3361"/>
</g>
<!-- n2&#45;&gt;n1 -->
<g id="edge4" class="edge">
<title>n2:f1&#45;&gt;n1:f2</title>
<path fill="none" stroke="#000000" d="M70.2398,-255.2696C70.2398,-267.7314 70.2398,-273.1104 70.2398,-282.1415"/>
<polygon fill="#000000" stroke="#000000" points="66.7398,-282.2695 70.2398,-292.2696 73.7398,-282.2696 66.7398,-282.2695"/>
</g>
<!-- n3 -->
<g id="node3" class="node">
<title>n3</title>
<polygon fill="none" stroke="#000000" points="61,-146.2696 61,-182.2696 201.4795,-182.2696 201.4795,-146.2696 61,-146.2696"/>
<text text-anchor="middle" x="82.326" y="-159.7696" font-family="Times,serif" font-size="15.00" fill="#000000">prev</text>
<polyline fill="none" stroke="#000000" points="103.652,-146.2696 103.652,-182.2696 "/>
<text text-anchor="middle" x="131.6523" y="-159.7696" font-family="Times,serif" font-size="15.00" fill="#000000">Empl3</text>
<polyline fill="none" stroke="#000000" points="159.6525,-146.2696 159.6525,-182.2696 "/>
<text text-anchor="middle" x="180.566" y="-159.7696" font-family="Times,serif" font-size="15.00" fill="#000000">next</text>
</g>
<!-- n2&#45;&gt;n3 -->
<g id="edge2" class="edge">
<title>n2:f3&#45;&gt;n3:f2</title>
<path fill="none" stroke="#000000" d="M168.2398,-219.2696C168.2398,-200.1924 143.342,-203.1652 134.3943,-192.0122"/>
<polygon fill="#000000" stroke="#000000" points="137.6501,-190.7051 131.2398,-182.2696 130.9905,-192.8615 137.6501,-190.7051"/>
</g>
<!-- n3&#45;&gt;n2 -->
<g id="edge5" class="edge">
<title>n3:f1&#45;&gt;n2:f2</title>
<path fill="none" stroke="#000000" d="M82.2398,-182.2696C82.2398,-201.3467 107.1375,-198.3739 116.0852,-209.5269"/>
<polygon fill="#000000" stroke="#000000" points="112.8294,-210.834 119.2398,-219.2696 119.489,-208.6776 112.8294,-210.834"/>
</g>
<!-- n4 -->
<g id="node4" class="node">
<title>n4</title>
<polygon fill="none" stroke="#000000" points="73,-73.2696 73,-109.2696 213.4795,-109.2696 213.4795,-73.2696 73,-73.2696"/>
<text text-anchor="middle" x="94.326" y="-86.7696" font-family="Times,serif" font-size="15.00" fill="#000000">prev</text>
<polyline fill="none" stroke="#000000" points="115.652,-73.2696 115.652,-109.2696 "/>
<text text-anchor="middle" x="143.6523" y="-86.7696" font-family="Times,serif" font-size="15.00" fill="#000000">Empl4</text>
<polyline fill="none" stroke="#000000" points="171.6525,-73.2696 171.6525,-109.2696 "/>
<text text-anchor="middle" x="192.566" y="-86.7696" font-family="Times,serif" font-size="15.00" fill="#000000">next</text>
</g>
<!-- n3&#45;&gt;n4 -->
<g id="edge3" class="edge">
<title>n3:f3&#45;&gt;n4:f2</title>
<path fill="none" stroke="#000000" d="M180.2398,-146.2696C180.2398,-127.1924 155.342,-130.1652 146.3943,-119.0122"/>
<polygon fill="#000000" stroke="#000000" points="149.6501,-117.7051 143.2398,-109.2696 142.9905,-119.8615 149.6501,-117.7051"/>
</g>
<!-- n4&#45;&gt;n3 -->
<g id="edge6" class="edge">
<title>n4:f1&#45;&gt;n3:f2</title>
<path fill="none" stroke="#000000" d="M94.2398,-109.2696C94.2398,-128.3467 119.1375,-125.3739 128.0852,-136.5269"/>
<polygon fill="#000000" stroke="#000000" points="124.8294,-137.834 131.2398,-146.2696 131.489,-135.6776 124.8294,-137.834"/>
</g>
<!-- n4&#45;&gt;NULL -->
<g id="edge8" class="edge">
<title>n4:f3&#45;&gt;NULL</title>
<path fill="none" stroke="#000000" d="M192.2398,-73.2696C192.2398,-64.7608 192.2398,-55.5101 192.2398,-47.0702"/>
<polygon fill="#000000" stroke="#000000" points="195.7398,-46.9303 192.2398,-36.9304 188.7398,-46.9304 195.7398,-46.9303"/>
</g>
<!-- n5 -->
<g id="node5" class="node">
<title>n5</title>
<polygon fill="none" stroke="#000000" points="177.2558,-292.2696 177.2558,-328.2696 335.2238,-328.2696 335.2238,-292.2696 177.2558,-292.2696"/>
<text text-anchor="middle" x="198.5818" y="-305.7696" font-family="Times,serif" font-size="15.00" fill="#000000">prev</text>
<polyline fill="none" stroke="#000000" points="219.9078,-292.2696 219.9078,-328.2696 "/>
<text text-anchor="middle" x="256.6523" y="-305.7696" font-family="Times,serif" font-size="15.00" fill="#000000">Removed</text>
<polyline fill="none" stroke="#000000" points="293.3968,-292.2696 293.3968,-328.2696 "/>
<text text-anchor="middle" x="314.3103" y="-305.7696" font-family="Times,serif" font-size="15.00" fill="#000000">next</text>
</g>
<!-- n5&#45;&gt;n2 -->
<g id="edge9" class="edge">
<title>n5:f3&#45;&gt;n2:f2</title>
<path fill="none" stroke="#000000" d="M314.2398,-292.2696C314.2398,-207.847 135.6375,-331.9209 120.2889,-265.416"/>
<polygon fill="#000000" stroke="#000000" points="123.7498,-264.8565 119.2398,-255.2696 116.7869,-265.5765 123.7498,-264.8565"/>
</g>
<!-- n5&#45;&gt;NULL -->
<g id="edge10" class="edge">
<title>n5:f1&#45;&gt;NULL</title>
<path fill="none" stroke="#000000" d="M198.2398,-292.2696C198.2398,-194.1326 246.7136,-167.8058 222.2398,-72.7696 219.7515,-63.1071 215.1426,-53.3245 210.2711,-44.7709"/>
<polygon fill="#000000" stroke="#000000" points="213.1502,-42.7687 204.97,-36.0356 207.166,-46.4004 213.1502,-42.7687"/>
</g>
</g>
</svg>
