<?xml version="1.0" encoding="UTF-8" standalone="no"?>
<!DOCTYPE svg PUBLIC "-//W3C//DTD SVG 1.1//EN"
 "http://www.w3.org/Graphics/SVG/1.1/DTD/svg11.dtd">
<!-- Generated by graphviz version 2.40.1 (20161225.0304)
 -->
<!-- Title: G Pages: 1 -->
<svg width="338pt" height="357pt"
 viewBox="0.00 0.00 337.96 356.57" xmlns="http://www.w3.org/2000/svg" xmlns:xlink="http://www.w3.org/1999/xlink">
<g id="graph0" class="graph" transform="scale(1 1) rotate(0) translate(4 352.5696)">
<title>G</title>
<polygon fill="#ffffff" stroke="transparent" points="-4,4 -4,-352.5696 333.9618,-352.5696 333.9618,4 -4,4"/>
<!-- n1 -->
<g id="node1" class="node">
<title>n1</title>
<polygon fill="none" stroke="#000000" points="0,-312.0696 0,-348.0696 140.4795,-348.0696 140.4795,-312.0696 0,-312.0696"/>
<text text-anchor="middle" x="21.326" y="-325.5696" font-family="Times,serif" font-size="15.00" fill="#000000">prev</text>
<polyline fill="none" stroke="#000000" points="42.652,-312.0696 42.652,-348.0696 "/>
<text text-anchor="middle" x="70.6523" y="-325.5696" font-family="Times,serif" font-size="15.00" fill="#000000">Empl1</text>
<polyline fill="none" stroke="#000000" points="98.6525,-312.0696 98.6525,-348.0696 "/>
<text text-anchor="middle" x="119.566" y="-325.5696" font-family="Times,serif" font-size="15.00" fill="#000000">next</text>
</g>
<!-- n2 -->
<g id="node2" class="node">
<title>n2</title>
<polygon fill="none" stroke="#000000" points="49,-238.0696 49,-274.0696 189.4795,-274.0696 189.4795,-238.0696 49,-238.0696"/>
<text text-anchor="middle" x="70.326" y="-251.5696" font-family="Times,serif" font-size="15.00" fill="#000000">prev</text>
<polyline fill="none" stroke="#000000" points="91.652,-238.0696 91.652,-274.0696 "/>
<text text-anchor="middle" x="119.6523" y="-251.5696" font-family="Times,serif" font-size="15.00" fill="#000000">Empl2</text>
<polyline fill="none" stroke="#000000" points="147.6525,-238.0696 147.6525,-274.0696 "/>
<text text-anchor="middle" x="168.566" y="-251.5696" font-family="Times,serif" font-size="15.00" fill="#000000">next</text>
</g>
<!-- n1&#45;&gt;n2 -->
<g id="edge1" class="edge">
<title>n1:f3&#45;&gt;n2:f2</title>
<path fill="none" stroke="#000000" d="M119.2398,-312.0696C119.2398,-299.139 119.2398,-293.6334 119.2398,-284.1833"/>
<polygon fill="#000000" stroke="#000000" points="122.7398,-284.0695 119.2398,-274.0696 115.7398,-284.0696 122.7398,-284.0695"/>
</g>
<!-- NULL -->
<g id="node5" class="node">
<title>NULL</title>
<ellipse fill="none" stroke="#000000" cx="99.2397" cy="-18.3848" rx="39.6735" ry="18.2703"/>
<text text-anchor="middle" x="99.2398" y="-13.8848" font-family="Times,serif" font-size="15.00" fill="#000000">NULL</text>
</g>
<!-- n1&#45;&gt;NULL -->
<g id="edge7" class="edge">
<title>n1:f1&#45;&gt;NULL</title>
<path fill="none" stroke="#000000" d="M21.2398,-312.0696C21.2398,-287.1807 21.2398,-280.9584 21.2398,-256.0696 21.2398,-256.0696 21.2398,-256.0696 21.2398,-92.2696 21.2398,-67.735 41.8317,-48.907 61.855,-36.3986"/>
<polygon fill="#000000" stroke="#000000" points="63.7725,-39.3318 70.6383,-31.2627 60.2391,-33.2891 63.7725,-39.3318"/>
</g>
<!-- n2&#45;&gt;n1 -->
<g id="edge4" class="edge">
<title>n2:f1&#45;&gt;n1:f2</title>
<path fill="none" stroke="#000000" d="M70.2398,-274.0696C70.2398,-287.0001 70.2398,-292.5057 70.2398,-301.9558"/>
<polygon fill="#000000" stroke="#000000" points="66.7398,-302.0695 70.2398,-312.0696 73.7398,-302.0696 66.7398,-302.0695"/>
</g>
<!-- n3 -->
<g id="node3" class="node">
<title>n3</title>
<polygon fill="none" stroke="#000000" points="98,-164.0696 98,-200.0696 238.4795,-200.0696 238.4795,-164.0696 98,-164.0696"/>
<text text-anchor="middle" x="119.326" y="-177.5696" font-family="Times,serif" font-size="15.00" fill="#000000">prev</text>
<polyline fill="none" stroke="#000000" points="140.652,-164.0696 140.652,-200.0696 "/>
<text text-anchor="middle" x="168.6523" y="-177.5696" font-family="Times,serif" font-size="15.00" fill="#000000">Empl3</text>
<polyline fill="none" stroke="#000000" points="196.6525,-164.0696 196.6525,-200.0696 "/>
<text text-anchor="middle" x="217.566" y="-177.5696" font-family="Times,serif" font-size="15.00" fill="#000000">next</text>
</g>
<!-- n2&#45;&gt;n3 -->
<g id="edge2" class="edge">
<title>n2:f3&#45;&gt;n3:f2</title>
<path fill="none" stroke="#000000" d="M168.2398,-238.0696C168.2398,-225.139 168.2398,-219.6334 168.2398,-210.1833"/>
<polygon fill="#000000" stroke="#000000" points="171.7398,-210.0695 168.2398,-200.0696 164.7398,-210.0696 171.7398,-210.0695"/>
</g>
<!-- n3&#45;&gt;n2 -->
<g id="edge5" class="edge">
<title>n3:f1&#45;&gt;n2:f2</title>
<path fill="none" stroke="#000000" d="M119.2398,-200.0696C119.2398,-213.0001 119.2398,-218.5057 119.2398,-227.9558"/>
<polygon fill="#000000" stroke="#000000" points="115.7398,-228.0695 119.2398,-238.0696 122.7398,-228.0696 115.7398,-228.0695"/>
</g>
<!-- n4 -->
<g id="node4" class="node">
<title>n4</title>
<polygon fill="none" stroke="#000000" points="104.5178,-74.2696 104.5178,-110.2696 329.9618,-110.2696 329.9618,-74.2696 104.5178,-74.2696"/>
<text text-anchor="middle" x="125.8438" y="-87.7696" font-family="Times,serif" font-size="15.00" fill="#000000">prev</text>
<polyline fill="none" stroke="#000000" points="147.1698,-74.2696 147.1698,-110.2696 "/>
<text text-anchor="middle" x="217.6523" y="-87.7696" font-family="Times,serif" font-size="15.00" fill="#000000">Removed yani TAIL</text>
<polyline fill="none" stroke="#000000" points="288.1348,-74.2696 288.1348,-110.2696 "/>
<text text-anchor="middle" x="309.0483" y="-87.7696" font-family="Times,serif" font-size="15.00" fill="#000000">next</text>
</g>
<!-- n3&#45;&gt;n4 -->
<g id="edge3" class="edge">
<title>n3:f3&#45;&gt;n4:f2</title>
<path fill="none" stroke="#000000" d="M217.2398,-164.0696C217.2398,-143.8946 217.2398,-136.4865 217.2398,-120.3012"/>
<polygon fill="#000000" stroke="#000000" points="220.7398,-120.2695 217.2398,-110.2696 213.7398,-120.2696 220.7398,-120.2695"/>
<text text-anchor="middle" x="271.6725" y="-132.9696" font-family="Times,serif" font-size="14.00" fill="#000000"> &#160;TAIL suan Empl4</text>
</g>
<!-- n4&#45;&gt;n3 -->
<g id="edge6" class="edge">
<title>n4:f1&#45;&gt;n3:f2</title>
<path fill="none" stroke="#000000" d="M126.2398,-110.2696C126.2398,-136.6938 158.1095,-134.8877 166.326,-154.0338"/>
<polygon fill="#000000" stroke="#000000" points="162.9284,-154.9022 168.2398,-164.0696 169.8045,-153.5909 162.9284,-154.9022"/>
</g>
<!-- n4&#45;&gt;NULL -->
<g id="edge8" class="edge">
<title>n4:f3&#45;&gt;NULL</title>
<path fill="none" stroke="#000000" d="M309.2398,-74.2696C309.2398,-41.2122 210.8327,-27.2256 148.7471,-21.6909"/>
<polygon fill="#000000" stroke="#000000" points="148.9989,-18.1998 138.7391,-20.8433 148.4081,-25.1748 148.9989,-18.1998"/>
</g>
</g>
</svg>
