<?xml version="1.0" encoding="UTF-8" standalone="no"?>
<!DOCTYPE svg PUBLIC "-//W3C//DTD SVG 1.1//EN"
 "http://www.w3.org/Graphics/SVG/1.1/DTD/svg11.dtd">
<!-- Generated by graphviz version 2.40.1 (20161225.0304)
 -->
<!-- Title: G Pages: 1 -->
<svg width="308pt" height="337pt"
 viewBox="0.00 0.00 308.22 336.77" xmlns="http://www.w3.org/2000/svg" xmlns:xlink="http://www.w3.org/1999/xlink">
<g id="graph0" class="graph" transform="scale(1 1) rotate(0) translate(4 332.7696)">
<title>G</title>
<polygon fill="#ffffff" stroke="transparent" points="-4,4 -4,-332.7696 304.2238,-332.7696 304.2238,4 -4,4"/>
<!-- n2 -->
<g id="node1" class="node">
<title>n2</title>
<polygon fill="none" stroke="#000000" points="61.7442,-219.2696 61.7442,-255.2696 202.2238,-255.2696 202.2238,-219.2696 61.7442,-219.2696"/>
<text text-anchor="middle" x="83.0702" y="-232.7696" font-family="Times,serif" font-size="15.00" fill="#000000">prev</text>
<polyline fill="none" stroke="#000000" points="104.3962,-219.2696 104.3962,-255.2696 "/>
<text text-anchor="middle" x="132.3965" y="-232.7696" font-family="Times,serif" font-size="15.00" fill="#000000">Empl2</text>
<polyline fill="none" stroke="#000000" points="160.3968,-219.2696 160.3968,-255.2696 "/>
<text text-anchor="middle" x="181.3103" y="-232.7696" font-family="Times,serif" font-size="15.00" fill="#000000">next</text>
</g>
<!-- n3 -->
<g id="node2" class="node">
<title>n3</title>
<polygon fill="none" stroke="#000000" points="110.7442,-146.2696 110.7442,-182.2696 251.2238,-182.2696 251.2238,-146.2696 110.7442,-146.2696"/>
<text text-anchor="middle" x="132.0702" y="-159.7696" font-family="Times,serif" font-size="15.00" fill="#000000">prev</text>
<polyline fill="none" stroke="#000000" points="153.3962,-146.2696 153.3962,-182.2696 "/>
<text text-anchor="middle" x="181.3965" y="-159.7696" font-family="Times,serif" font-size="15.00" fill="#000000">Empl3</text>
<polyline fill="none" stroke="#000000" points="209.3968,-146.2696 209.3968,-182.2696 "/>
<text text-anchor="middle" x="230.3103" y="-159.7696" font-family="Times,serif" font-size="15.00" fill="#000000">next</text>
</g>
<!-- n2&#45;&gt;n3 -->
<g id="edge1" class="edge">
<title>n2:f3&#45;&gt;n3:f2</title>
<path fill="none" stroke="#000000" d="M180.984,-219.2696C180.984,-206.8077 180.984,-201.4287 180.984,-192.3976"/>
<polygon fill="#000000" stroke="#000000" points="184.4841,-192.2695 180.984,-182.2696 177.4841,-192.2696 184.4841,-192.2695"/>
</g>
<!-- NULL -->
<g id="node5" class="node">
<title>NULL</title>
<ellipse fill="none" stroke="#000000" cx="82.984" cy="-18.3848" rx="39.6735" ry="18.2703"/>
<text text-anchor="middle" x="82.984" y="-13.8848" font-family="Times,serif" font-size="15.00" fill="#000000">NULL</text>
</g>
<!-- n2&#45;&gt;NULL -->
<g id="edge3" class="edge">
<title>n2:f1&#45;&gt;NULL</title>
<path fill="none" stroke="#000000" d="M82.984,-219.2696C82.984,-157.9031 82.984,-85.9918 82.984,-47.0224"/>
<polygon fill="#000000" stroke="#000000" points="86.4841,-46.9407 82.984,-36.9407 79.4841,-46.9407 86.4841,-46.9407"/>
</g>
<!-- n3&#45;&gt;n2 -->
<g id="edge4" class="edge">
<title>n3:f1&#45;&gt;n2:f2</title>
<path fill="none" stroke="#000000" d="M131.984,-182.2696C131.984,-194.7314 131.984,-200.1104 131.984,-209.1415"/>
<polygon fill="#000000" stroke="#000000" points="128.4841,-209.2695 131.984,-219.2696 135.4841,-209.2696 128.4841,-209.2695"/>
</g>
<!-- n4 -->
<g id="node3" class="node">
<title>n4</title>
<polygon fill="none" stroke="#000000" points="159.7442,-73.2696 159.7442,-109.2696 300.2238,-109.2696 300.2238,-73.2696 159.7442,-73.2696"/>
<text text-anchor="middle" x="181.0702" y="-86.7696" font-family="Times,serif" font-size="15.00" fill="#000000">prev</text>
<polyline fill="none" stroke="#000000" points="202.3962,-73.2696 202.3962,-109.2696 "/>
<text text-anchor="middle" x="230.3965" y="-86.7696" font-family="Times,serif" font-size="15.00" fill="#000000">Empl4</text>
<polyline fill="none" stroke="#000000" points="258.3968,-73.2696 258.3968,-109.2696 "/>
<text text-anchor="middle" x="279.3103" y="-86.7696" font-family="Times,serif" font-size="15.00" fill="#000000">next</text>
</g>
<!-- n3&#45;&gt;n4 -->
<g id="edge2" class="edge">
<title>n3:f3&#45;&gt;n4:f2</title>
<path fill="none" stroke="#000000" d="M229.984,-146.2696C229.984,-133.8077 229.984,-128.4287 229.984,-119.3976"/>
<polygon fill="#000000" stroke="#000000" points="233.4841,-119.2695 229.984,-109.2696 226.4841,-119.2696 233.4841,-119.2695"/>
</g>
<!-- n4&#45;&gt;n3 -->
<g id="edge5" class="edge">
<title>n4:f1&#45;&gt;n3:f2</title>
<path fill="none" stroke="#000000" d="M180.984,-109.2696C180.984,-121.7314 180.984,-127.1104 180.984,-136.1415"/>
<polygon fill="#000000" stroke="#000000" points="177.4841,-136.2695 180.984,-146.2696 184.4841,-136.2696 177.4841,-136.2695"/>
</g>
<!-- n4&#45;&gt;NULL -->
<g id="edge6" class="edge">
<title>n4:f3&#45;&gt;NULL</title>
<path fill="none" stroke="#000000" d="M278.984,-73.2696C278.984,-42.8512 190.3386,-28.5234 132.278,-22.4013"/>
<polygon fill="#000000" stroke="#000000" points="132.4765,-18.9037 122.1765,-21.3856 131.7761,-25.8686 132.4765,-18.9037"/>
</g>
<!-- n5 -->
<g id="node4" class="node">
<title>n5</title>
<polygon fill="none" stroke="#000000" points="0,-292.2696 0,-328.2696 157.968,-328.2696 157.968,-292.2696 0,-292.2696"/>
<text text-anchor="middle" x="21.326" y="-305.7696" font-family="Times,serif" font-size="15.00" fill="#000000">prev</text>
<polyline fill="none" stroke="#000000" points="42.652,-292.2696 42.652,-328.2696 "/>
<text text-anchor="middle" x="79.3965" y="-305.7696" font-family="Times,serif" font-size="15.00" fill="#000000">Removed</text>
<polyline fill="none" stroke="#000000" points="116.141,-292.2696 116.141,-328.2696 "/>
<text text-anchor="middle" x="137.0545" y="-305.7696" font-family="Times,serif" font-size="15.00" fill="#000000">next</text>
</g>
<!-- n5&#45;&gt;n2 -->
<g id="edge7" class="edge">
<title>n5:f3&#45;&gt;n2:f2</title>
<path fill="none" stroke="#000000" d="M136.984,-292.2696C136.984,-279.6945 134.1126,-274.4597 132.7218,-265.4401"/>
<polygon fill="#000000" stroke="#000000" points="136.1984,-264.9901 131.984,-255.2696 129.2168,-265.4966 136.1984,-264.9901"/>
</g>
<!-- n5&#45;&gt;NULL -->
<g id="edge8" class="edge">
<title>n5:f1&#45;&gt;NULL</title>
<path fill="none" stroke="#000000" d="M20.984,-292.2696C20.984,-200.3291 54.6298,-95.217 72.3501,-46.2331"/>
<polygon fill="#000000" stroke="#000000" points="75.7049,-47.2509 75.8718,-36.6573 69.1351,-44.8346 75.7049,-47.2509"/>
</g>
</g>
</svg>
