<?xml version="1.0" encoding="UTF-8" standalone="no"?>
<!DOCTYPE svg PUBLIC "-//W3C//DTD SVG 1.1//EN"
 "http://www.w3.org/Graphics/SVG/1.1/DTD/svg11.dtd">
<!-- Generated by graphviz version 2.40.1 (20161225.0304)
 -->
<!-- Title: G Pages: 1 -->
<svg width="490pt" height="264pt"
 viewBox="0.00 0.00 489.96 263.77" xmlns="http://www.w3.org/2000/svg" xmlns:xlink="http://www.w3.org/1999/xlink">
<g id="graph0" class="graph" transform="scale(1 1) rotate(0) translate(4 259.7696)">
<title>G</title>
<polygon fill="#ffffff" stroke="transparent" points="-4,4 -4,-259.7696 485.9618,-259.7696 485.9618,4 -4,4"/>
<!-- n1 -->
<g id="node1" class="node">
<title>n1</title>
<polygon fill="none" stroke="#000000" points="0,-219.2696 0,-255.2696 140.4795,-255.2696 140.4795,-219.2696 0,-219.2696"/>
<text text-anchor="middle" x="21.326" y="-232.7696" font-family="Times,serif" font-size="15.00" fill="#000000">prev</text>
<polyline fill="none" stroke="#000000" points="42.652,-219.2696 42.652,-255.2696 "/>
<text text-anchor="middle" x="70.6523" y="-232.7696" font-family="Times,serif" font-size="15.00" fill="#000000">Empl1</text>
<polyline fill="none" stroke="#000000" points="98.6525,-219.2696 98.6525,-255.2696 "/>
<text text-anchor="middle" x="119.566" y="-232.7696" font-family="Times,serif" font-size="15.00" fill="#000000">next</text>
</g>
<!-- n2 -->
<g id="node2" class="node">
<title>n2</title>
<polygon fill="none" stroke="#000000" points="49,-146.2696 49,-182.2696 189.4795,-182.2696 189.4795,-146.2696 49,-146.2696"/>
<text text-anchor="middle" x="70.326" y="-159.7696" font-family="Times,serif" font-size="15.00" fill="#000000">prev</text>
<polyline fill="none" stroke="#000000" points="91.652,-146.2696 91.652,-182.2696 "/>
<text text-anchor="middle" x="119.6523" y="-159.7696" font-family="Times,serif" font-size="15.00" fill="#000000">Empl2</text>
<polyline fill="none" stroke="#000000" points="147.6525,-146.2696 147.6525,-182.2696 "/>
<text text-anchor="middle" x="168.566" y="-159.7696" font-family="Times,serif" font-size="15.00" fill="#000000">next</text>
</g>
<!-- n1&#45;&gt;n2 -->
<g id="edge1" class="edge">
<title>n1:f3&#45;&gt;n2:f2</title>
<path fill="none" stroke="#000000" d="M119.2398,-219.2696C119.2398,-206.8077 119.2398,-201.4287 119.2398,-192.3976"/>
<polygon fill="#000000" stroke="#000000" points="122.7398,-192.2695 119.2398,-182.2696 115.7398,-192.2696 122.7398,-192.2695"/>
</g>
<!-- NULL -->
<g id="node5" class="node">
<title>NULL</title>
<ellipse fill="none" stroke="#000000" cx="247.2398" cy="-18.3848" rx="39.6735" ry="18.2703"/>
<text text-anchor="middle" x="247.2398" y="-13.8848" font-family="Times,serif" font-size="15.00" fill="#000000">NULL</text>
</g>
<!-- n1&#45;&gt;NULL -->
<g id="edge2" class="edge">
<title>n1:f1&#45;&gt;NULL</title>
<path fill="none" stroke="#000000" d="M21.2398,-219.2696C21.2398,-147.4863 32.3372,-116.5296 89.2398,-72.7696 121.5423,-47.9278 165.966,-33.9736 199.4834,-26.4381"/>
<polygon fill="#000000" stroke="#000000" points="200.4592,-29.8088 209.5097,-24.3007 198.9997,-22.9627 200.4592,-29.8088"/>
</g>
<!-- n2&#45;&gt;n1 -->
<g id="edge4" class="edge">
<title>n2:f1&#45;&gt;n1:f2</title>
<path fill="none" stroke="#000000" d="M70.2398,-182.2696C70.2398,-194.7314 70.2398,-200.1104 70.2398,-209.1415"/>
<polygon fill="#000000" stroke="#000000" points="66.7398,-209.2695 70.2398,-219.2696 73.7398,-209.2696 66.7398,-209.2695"/>
</g>
<!-- n3 -->
<g id="node3" class="node">
<title>n3</title>
<polygon fill="none" stroke="#000000" points="98,-73.2696 98,-109.2696 238.4795,-109.2696 238.4795,-73.2696 98,-73.2696"/>
<text text-anchor="middle" x="119.326" y="-86.7696" font-family="Times,serif" font-size="15.00" fill="#000000">prev</text>
<polyline fill="none" stroke="#000000" points="140.652,-73.2696 140.652,-109.2696 "/>
<text text-anchor="middle" x="168.6523" y="-86.7696" font-family="Times,serif" font-size="15.00" fill="#000000">Empl3</text>
<polyline fill="none" stroke="#000000" points="196.6525,-73.2696 196.6525,-109.2696 "/>
<text text-anchor="middle" x="217.566" y="-86.7696" font-family="Times,serif" font-size="15.00" fill="#000000">next</text>
</g>
<!-- n2&#45;&gt;n3 -->
<g id="edge3" class="edge">
<title>n2:f3&#45;&gt;n3:f2</title>
<path fill="none" stroke="#000000" d="M168.2398,-146.2696C168.2398,-133.8077 168.2398,-128.4287 168.2398,-119.3976"/>
<polygon fill="#000000" stroke="#000000" points="171.7398,-119.2695 168.2398,-109.2696 164.7398,-119.2696 171.7398,-119.2695"/>
</g>
<!-- n3&#45;&gt;n2 -->
<g id="edge5" class="edge">
<title>n3:f1&#45;&gt;n2:f2</title>
<path fill="none" stroke="#000000" d="M119.2398,-109.2696C119.2398,-121.7314 119.2398,-127.1104 119.2398,-136.1415"/>
<polygon fill="#000000" stroke="#000000" points="115.7398,-136.2695 119.2398,-146.2696 122.7398,-136.2696 115.7398,-136.2695"/>
</g>
<!-- n3&#45;&gt;NULL -->
<g id="edge6" class="edge">
<title>n3:f3&#45;&gt;NULL</title>
<path fill="none" stroke="#000000" d="M217.2398,-73.2696C217.2398,-62.9534 221.3711,-52.7355 226.5675,-43.9636"/>
<polygon fill="#000000" stroke="#000000" points="229.6342,-45.6719 232.2398,-35.4024 223.7988,-41.8056 229.6342,-45.6719"/>
</g>
<!-- n4 -->
<g id="node4" class="node">
<title>n4</title>
<polygon fill="none" stroke="#000000" points="256.5178,-73.2696 256.5178,-109.2696 481.9618,-109.2696 481.9618,-73.2696 256.5178,-73.2696"/>
<text text-anchor="middle" x="277.8438" y="-86.7696" font-family="Times,serif" font-size="15.00" fill="#000000">prev</text>
<polyline fill="none" stroke="#000000" points="299.1698,-73.2696 299.1698,-109.2696 "/>
<text text-anchor="middle" x="369.6523" y="-86.7696" font-family="Times,serif" font-size="15.00" fill="#000000">Removed yani TAIL</text>
<polyline fill="none" stroke="#000000" points="440.1348,-73.2696 440.1348,-109.2696 "/>
<text text-anchor="middle" x="461.0483" y="-86.7696" font-family="Times,serif" font-size="15.00" fill="#000000">next</text>
</g>
<!-- n4&#45;&gt;NULL -->
<g id="edge7" class="edge">
<title>n4:f3&#45;&gt;NULL</title>
<path fill="none" stroke="#000000" d="M461.2398,-73.2696C461.2398,-39.5257 360.1435,-26.2394 296.9225,-21.2298"/>
<polygon fill="#000000" stroke="#000000" points="296.9733,-17.7239 286.74,-20.468 296.451,-24.7044 296.9733,-17.7239"/>
</g>
<!-- n4&#45;&gt;NULL -->
<g id="edge8" class="edge">
<title>n4:f1&#45;&gt;NULL</title>
<path fill="none" stroke="#000000" d="M278.2398,-73.2696C278.2398,-62.7638 273.8804,-52.4192 268.4312,-43.5923"/>
<polygon fill="#000000" stroke="#000000" points="271.2919,-41.5753 262.7398,-35.3214 265.5253,-45.5435 271.2919,-41.5753"/>
</g>
</g>
</svg>
