<?xml version="1.0" encoding="UTF-8" standalone="no"?>
<!DOCTYPE svg PUBLIC "-//W3C//DTD SVG 1.1//EN"
 "http://www.w3.org/Graphics/SVG/1.1/DTD/svg11.dtd">
<!-- Generated by graphviz version 2.40.1 (20161225.0304)
 -->
<!-- Title: G Pages: 1 -->
<svg width="441pt" height="264pt"
 viewBox="0.00 0.00 440.96 263.77" xmlns="http://www.w3.org/2000/svg" xmlns:xlink="http://www.w3.org/1999/xlink">
<g id="graph0" class="graph" transform="scale(1 1) rotate(0) translate(4 259.7696)">
<title>G</title>
<polygon fill="#ffffff" stroke="transparent" points="-4,4 -4,-259.7696 436.9618,-259.7696 436.9618,4 -4,4"/>
<!-- n1 -->
<g id="node1" class="node">
<title>n1</title>
<polygon fill="none" stroke="#000000" points="0,-219.2696 0,-255.2696 140.4795,-255.2696 140.4795,-219.2696 0,-219.2696"/>
<text text-anchor="middle" x="21.326" y="-232.7696" font-family="Times,serif" font-size="15.00" fill="#000000">prev</text>
<polyline fill="none" stroke="#000000" points="42.652,-219.2696 42.652,-255.2696 "/>
<text text-anchor="middle" x="70.6523" y="-232.7696" font-family="Times,serif" font-size="15.00" fill="#000000">Empl1</text>
<polyline fill="none" stroke="#000000" points="98.6525,-219.2696 98.6525,-255.2696 "/>
<text text-anchor="middle" x="119.566" y="-232.7696" font-family="Times,serif" font-size="15.00" fill="#000000">next</text>
</g>
<!-- n2 -->
<g id="node2" class="node">
<title>n2</title>
<polygon fill="none" stroke="#000000" points="49,-146.2696 49,-182.2696 189.4795,-182.2696 189.4795,-146.2696 49,-146.2696"/>
<text text-anchor="middle" x="70.326" y="-159.7696" font-family="Times,serif" font-size="15.00" fill="#000000">prev</text>
<polyline fill="none" stroke="#000000" points="91.652,-146.2696 91.652,-182.2696 "/>
<text text-anchor="middle" x="119.6523" y="-159.7696" font-family="Times,serif" font-size="15.00" fill="#000000">Empl2</text>
<polyline fill="none" stroke="#000000" points="147.6525,-146.2696 147.6525,-182.2696 "/>
<text text-anchor="middle" x="168.566" y="-159.7696" font-family="Times,serif" font-size="15.00" fill="#000000">next</text>
</g>
<!-- n1&#45;&gt;n2 -->
<g id="edge1" class="edge">
<title>n1:f3&#45;&gt;n2:f2</title>
<path fill="none" stroke="#000000" d="M119.2398,-219.2696C119.2398,-206.8077 119.2398,-201.4287 119.2398,-192.3976"/>
<polygon fill="#000000" stroke="#000000" points="122.7398,-192.2695 119.2398,-182.2696 115.7398,-192.2696 122.7398,-192.2695"/>
</g>
<!-- NULL -->
<g id="node5" class="node">
<title>NULL</title>
<ellipse fill="none" stroke="#000000" cx="217.2398" cy="-18.3848" rx="39.6735" ry="18.2703"/>
<text text-anchor="middle" x="217.2398" y="-13.8848" font-family="Times,serif" font-size="15.00" fill="#000000">NULL</text>
</g>
<!-- n1&#45;&gt;NULL -->
<g id="edge2" class="edge">
<title>n1:f1&#45;&gt;NULL</title>
<path fill="none" stroke="#000000" d="M21.2398,-219.2696C21.2398,-147.4863 33.9094,-118.5013 89.2398,-72.7696 113.4985,-52.7192 146.2382,-38.9874 172.5331,-30.3379"/>
<polygon fill="#000000" stroke="#000000" points="173.7798,-33.6147 182.2642,-27.2692 171.6745,-26.9388 173.7798,-33.6147"/>
</g>
<!-- n2&#45;&gt;n1 -->
<g id="edge4" class="edge">
<title>n2:f1&#45;&gt;n1:f2</title>
<path fill="none" stroke="#000000" d="M70.2398,-182.2696C70.2398,-194.7314 70.2398,-200.1104 70.2398,-209.1415"/>
<polygon fill="#000000" stroke="#000000" points="66.7398,-209.2695 70.2398,-219.2696 73.7398,-209.2696 66.7398,-209.2695"/>
</g>
<!-- n3 -->
<g id="node3" class="node">
<title>n3</title>
<polygon fill="none" stroke="#000000" points="98,-73.2696 98,-109.2696 238.4795,-109.2696 238.4795,-73.2696 98,-73.2696"/>
<text text-anchor="middle" x="119.326" y="-86.7696" font-family="Times,serif" font-size="15.00" fill="#000000">prev</text>
<polyline fill="none" stroke="#000000" points="140.652,-73.2696 140.652,-109.2696 "/>
<text text-anchor="middle" x="168.6523" y="-86.7696" font-family="Times,serif" font-size="15.00" fill="#000000">Empl3</text>
<polyline fill="none" stroke="#000000" points="196.6525,-73.2696 196.6525,-109.2696 "/>
<text text-anchor="middle" x="217.566" y="-86.7696" font-family="Times,serif" font-size="15.00" fill="#000000">next</text>
</g>
<!-- n2&#45;&gt;n3 -->
<g id="edge3" class="edge">
<title>n2:f3&#45;&gt;n3:f2</title>
<path fill="none" stroke="#000000" d="M168.2398,-146.2696C168.2398,-133.8077 168.2398,-128.4287 168.2398,-119.3976"/>
<polygon fill="#000000" stroke="#000000" points="171.7398,-119.2695 168.2398,-109.2696 164.7398,-119.2696 171.7398,-119.2695"/>
</g>
<!-- n3&#45;&gt;n2 -->
<g id="edge5" class="edge">
<title>n3:f1&#45;&gt;n2:f2</title>
<path fill="none" stroke="#000000" d="M119.2398,-109.2696C119.2398,-121.7314 119.2398,-127.1104 119.2398,-136.1415"/>
<polygon fill="#000000" stroke="#000000" points="115.7398,-136.2695 119.2398,-146.2696 122.7398,-136.2696 115.7398,-136.2695"/>
</g>
<!-- n3&#45;&gt;NULL -->
<g id="edge6" class="edge">
<title>n3:f3&#45;&gt;NULL</title>
<path fill="none" stroke="#000000" d="M217.2398,-73.2696C217.2398,-64.7608 217.2398,-55.5101 217.2398,-47.0702"/>
<polygon fill="#000000" stroke="#000000" points="220.7398,-46.9303 217.2398,-36.9304 213.7398,-46.9304 220.7398,-46.9303"/>
</g>
<!-- n4 -->
<g id="node4" class="node">
<title>n4</title>
<polygon fill="none" stroke="#000000" points="207.5178,-146.2696 207.5178,-182.2696 432.9618,-182.2696 432.9618,-146.2696 207.5178,-146.2696"/>
<text text-anchor="middle" x="228.8438" y="-159.7696" font-family="Times,serif" font-size="15.00" fill="#000000">prev</text>
<polyline fill="none" stroke="#000000" points="250.1698,-146.2696 250.1698,-182.2696 "/>
<text text-anchor="middle" x="320.6523" y="-159.7696" font-family="Times,serif" font-size="15.00" fill="#000000">Removed yani TAIL</text>
<polyline fill="none" stroke="#000000" points="391.1348,-146.2696 391.1348,-182.2696 "/>
<text text-anchor="middle" x="412.0483" y="-159.7696" font-family="Times,serif" font-size="15.00" fill="#000000">next</text>
</g>
<!-- n4&#45;&gt;n3 -->
<g id="edge8" class="edge">
<title>n4:f1&#45;&gt;n3:f2</title>
<path fill="none" stroke="#000000" d="M229.2398,-146.2696C229.2398,-118.7723 183.3669,-134.9863 171.1819,-119.0999"/>
<polygon fill="#000000" stroke="#000000" points="174.4601,-117.8461 168.2398,-109.2696 167.754,-119.8532 174.4601,-117.8461"/>
</g>
<!-- n4&#45;&gt;NULL -->
<g id="edge7" class="edge">
<title>n4:f3&#45;&gt;NULL</title>
<path fill="none" stroke="#000000" d="M412.2398,-146.2696C412.2398,-75.8053 322.103,-42.0424 264.3943,-27.647"/>
<polygon fill="#000000" stroke="#000000" points="264.9157,-24.1734 254.3767,-25.2598 263.293,-30.9827 264.9157,-24.1734"/>
</g>
</g>
</svg>
