<?xml version="1.0" encoding="UTF-8" standalone="no"?>
<!DOCTYPE svg PUBLIC "-//W3C//DTD SVG 1.1//EN"
 "http://www.w3.org/Graphics/SVG/1.1/DTD/svg11.dtd">
<!-- Generated by graphviz version 2.40.1 (20161225.0304)
 -->
<!-- Title: G Pages: 1 -->
<svg width="490pt" height="337pt"
 viewBox="0.00 0.00 489.96 336.57" xmlns="http://www.w3.org/2000/svg" xmlns:xlink="http://www.w3.org/1999/xlink">
<g id="graph0" class="graph" transform="scale(1 1) rotate(0) translate(4 332.5696)">
<title>G</title>
<polygon fill="#ffffff" stroke="transparent" points="-4,4 -4,-332.5696 485.9618,-332.5696 485.9618,4 -4,4"/>
<text text-anchor="middle" x="240.9809" y="-8.2" font-family="Times,serif" font-size="14.00" fill="#000000">© Enes Usta</text>
<!-- n1 -->
<g id="node1" class="node">
<title>n1</title>
<polygon fill="none" stroke="#000000" points="0,-292.0696 0,-328.0696 140.4795,-328.0696 140.4795,-292.0696 0,-292.0696"/>
<text text-anchor="middle" x="21.326" y="-305.5696" font-family="Times,serif" font-size="15.00" fill="#000000">prev</text>
<polyline fill="none" stroke="#000000" points="42.652,-292.0696 42.652,-328.0696 "/>
<text text-anchor="middle" x="70.6523" y="-305.5696" font-family="Times,serif" font-size="15.00" fill="#000000">Empl1</text>
<polyline fill="none" stroke="#000000" points="98.6525,-292.0696 98.6525,-328.0696 "/>
<text text-anchor="middle" x="119.566" y="-305.5696" font-family="Times,serif" font-size="15.00" fill="#000000">next</text>
</g>
<!-- n2 -->
<g id="node2" class="node">
<title>n2</title>
<polygon fill="none" stroke="#000000" points="49,-219.0696 49,-255.0696 189.4795,-255.0696 189.4795,-219.0696 49,-219.0696"/>
<text text-anchor="middle" x="70.326" y="-232.5696" font-family="Times,serif" font-size="15.00" fill="#000000">prev</text>
<polyline fill="none" stroke="#000000" points="91.652,-219.0696 91.652,-255.0696 "/>
<text text-anchor="middle" x="119.6523" y="-232.5696" font-family="Times,serif" font-size="15.00" fill="#000000">Empl2</text>
<polyline fill="none" stroke="#000000" points="147.6525,-219.0696 147.6525,-255.0696 "/>
<text text-anchor="middle" x="168.566" y="-232.5696" font-family="Times,serif" font-size="15.00" fill="#000000">next</text>
</g>
<!-- n1&#45;&gt;n2 -->
<g id="edge1" class="edge">
<title>n1:f3&#45;&gt;n2:f2</title>
<path fill="none" stroke="#000000" d="M119.2398,-292.0696C119.2398,-279.6077 119.2398,-274.2287 119.2398,-265.1976"/>
<polygon fill="#000000" stroke="#000000" points="122.7398,-265.0695 119.2398,-255.0696 115.7398,-265.0696 122.7398,-265.0695"/>
</g>
<!-- NULL -->
<g id="node5" class="node">
<title>NULL</title>
<ellipse fill="none" stroke="#000000" cx="247.2398" cy="-91.1848" rx="39.6735" ry="18.2703"/>
<text text-anchor="middle" x="247.2398" y="-86.6848" font-family="Times,serif" font-size="15.00" fill="#000000">NULL</text>
</g>
<!-- n1&#45;&gt;NULL -->
<g id="edge2" class="edge">
<title>n1:f1&#45;&gt;NULL</title>
<path fill="none" stroke="#000000" d="M21.2398,-292.0696C21.2398,-220.2863 32.3372,-189.3296 89.2398,-145.5696 121.5423,-120.7278 165.966,-106.7736 199.4834,-99.2381"/>
<polygon fill="#000000" stroke="#000000" points="200.4592,-102.6088 209.5097,-97.1007 198.9997,-95.7627 200.4592,-102.6088"/>
</g>
<!-- n2&#45;&gt;n1 -->
<g id="edge4" class="edge">
<title>n2:f1&#45;&gt;n1:f2</title>
<path fill="none" stroke="#000000" d="M70.2398,-255.0696C70.2398,-267.5314 70.2398,-272.9104 70.2398,-281.9415"/>
<polygon fill="#000000" stroke="#000000" points="66.7398,-282.0695 70.2398,-292.0696 73.7398,-282.0696 66.7398,-282.0695"/>
</g>
<!-- n3 -->
<g id="node3" class="node">
<title>n3</title>
<polygon fill="none" stroke="#000000" points="98,-146.0696 98,-182.0696 238.4795,-182.0696 238.4795,-146.0696 98,-146.0696"/>
<text text-anchor="middle" x="119.326" y="-159.5696" font-family="Times,serif" font-size="15.00" fill="#000000">prev</text>
<polyline fill="none" stroke="#000000" points="140.652,-146.0696 140.652,-182.0696 "/>
<text text-anchor="middle" x="168.6523" y="-159.5696" font-family="Times,serif" font-size="15.00" fill="#000000">Empl3</text>
<polyline fill="none" stroke="#000000" points="196.6525,-146.0696 196.6525,-182.0696 "/>
<text text-anchor="middle" x="217.566" y="-159.5696" font-family="Times,serif" font-size="15.00" fill="#000000">next</text>
</g>
<!-- n2&#45;&gt;n3 -->
<g id="edge3" class="edge">
<title>n2:f3&#45;&gt;n3:f2</title>
<path fill="none" stroke="#000000" d="M168.2398,-219.0696C168.2398,-206.6077 168.2398,-201.2287 168.2398,-192.1976"/>
<polygon fill="#000000" stroke="#000000" points="171.7398,-192.0695 168.2398,-182.0696 164.7398,-192.0696 171.7398,-192.0695"/>
</g>
<!-- n3&#45;&gt;n2 -->
<g id="edge5" class="edge">
<title>n3:f1&#45;&gt;n2:f2</title>
<path fill="none" stroke="#000000" d="M119.2398,-182.0696C119.2398,-194.5314 119.2398,-199.9104 119.2398,-208.9415"/>
<polygon fill="#000000" stroke="#000000" points="115.7398,-209.0695 119.2398,-219.0696 122.7398,-209.0696 115.7398,-209.0695"/>
</g>
<!-- n3&#45;&gt;NULL -->
<g id="edge6" class="edge">
<title>n3:f3&#45;&gt;NULL</title>
<path fill="none" stroke="#000000" d="M217.2398,-146.0696C217.2398,-135.7534 221.3711,-125.5355 226.5675,-116.7636"/>
<polygon fill="#000000" stroke="#000000" points="229.6342,-118.4719 232.2398,-108.2024 223.7988,-114.6056 229.6342,-118.4719"/>
</g>
<!-- n4 -->
<g id="node4" class="node">
<title>n4</title>
<polygon fill="none" stroke="#000000" points="256.5178,-146.0696 256.5178,-182.0696 481.9618,-182.0696 481.9618,-146.0696 256.5178,-146.0696"/>
<text text-anchor="middle" x="277.8438" y="-159.5696" font-family="Times,serif" font-size="15.00" fill="#000000">prev</text>
<polyline fill="none" stroke="#000000" points="299.1698,-146.0696 299.1698,-182.0696 "/>
<text text-anchor="middle" x="369.6523" y="-159.5696" font-family="Times,serif" font-size="15.00" fill="#000000">Removed yani TAIL</text>
<polyline fill="none" stroke="#000000" points="440.1348,-146.0696 440.1348,-182.0696 "/>
<text text-anchor="middle" x="461.0483" y="-159.5696" font-family="Times,serif" font-size="15.00" fill="#000000">next</text>
</g>
<!-- n4&#45;&gt;NULL -->
<g id="edge7" class="edge">
<title>n4:f3&#45;&gt;NULL</title>
<path fill="none" stroke="#000000" d="M461.2398,-146.0696C461.2398,-112.3257 360.1435,-99.0394 296.9225,-94.0298"/>
<polygon fill="#000000" stroke="#000000" points="296.9733,-90.5239 286.74,-93.268 296.451,-97.5044 296.9733,-90.5239"/>
</g>
<!-- n4&#45;&gt;NULL -->
<g id="edge8" class="edge">
<title>n4:f1&#45;&gt;NULL</title>
<path fill="none" stroke="#000000" d="M278.2398,-146.0696C278.2398,-135.5638 273.8804,-125.2192 268.4312,-116.3923"/>
<polygon fill="#000000" stroke="#000000" points="271.2919,-114.3753 262.7398,-108.1214 265.5253,-118.3435 271.2919,-114.3753"/>
</g>
</g>
</svg>
